<?xml version="1.0" encoding="utf-8"?>
<!-- Generator: Adobe Illustrator 22.1.0, SVG Export Plug-In . SVG Version: 6.00 Build 0)  -->
<svg version="1.1" id="Capa_1" xmlns="http://www.w3.org/2000/svg" xmlns:xlink="http://www.w3.org/1999/xlink" x="0px" y="0px"
	 viewBox="0 0 20 20" style="enable-background:new 0 0 20 20;" xml:space="preserve">
<style type="text/css">
	.st0{fill:#9AB8C3;}
</style>
<g>
	<g>
		<path class="st0" d="M0.2,10.6C0.2,10.6,0.2,10.6,0.2,10.6l4.1,4.1c0.3,0.3,0.8,0.3,1.1,0c0.3-0.3,0.3-0.8,0-1.1l-2.7-2.7h16.5
			c0.4,0,0.8-0.3,0.8-0.8s-0.3-0.8-0.8-0.8H2.7l2.7-2.7c0.3-0.3,0.3-0.8,0-1.1c-0.3-0.3-0.8-0.3-1.1,0L0.2,9.4c0,0,0,0,0,0
			C-0.1,9.8-0.1,10.2,0.2,10.6z"/>
	</g>
</g>
</svg>
