<?xml version="1.0" encoding="utf-8"?>
<!-- Generator: Adobe Illustrator 22.1.0, SVG Export Plug-In . SVG Version: 6.00 Build 0)  -->
<svg version="1.1" id="Capa_1" xmlns="http://www.w3.org/2000/svg" xmlns:xlink="http://www.w3.org/1999/xlink" x="0px" y="0px"
	 viewBox="0 0 9 9" style="enable-background:new 0 0 9 9;" xml:space="preserve">
<style type="text/css">
	.st0{fill:#0284A8;}
</style>
<g>
	<g>
		<path class="st0" d="M4.5,2.2c-1.2,0-2.3,1-2.3,2.3s1,2.3,2.3,2.3c1.2,0,2.3-1,2.3-2.3S5.7,2.2,4.5,2.2z"/>
		<g>
			<g>
				<path class="st0" d="M4.5,1.6c-0.2,0-0.4-0.2-0.4-0.4V0.4C4.1,0.2,4.3,0,4.5,0s0.4,0.2,0.4,0.4v0.7C4.9,1.4,4.7,1.6,4.5,1.6z"/>
			</g>
			<g>
				<path class="st0" d="M4.5,7.4c-0.2,0-0.4,0.2-0.4,0.4v0.7C4.1,8.8,4.3,9,4.5,9s0.4-0.2,0.4-0.4V7.9C4.9,7.6,4.7,7.4,4.5,7.4z"/>
			</g>
			<g>
				<path class="st0" d="M6.6,2.4C6.4,2.3,6.4,2,6.6,1.8l0.5-0.5c0.2-0.2,0.5-0.2,0.6,0c0.2,0.2,0.2,0.5,0,0.6L7.2,2.4
					C7,2.6,6.7,2.6,6.6,2.4z"/>
			</g>
			<g>
				<path class="st0" d="M2.4,6.6C2.3,6.4,2,6.4,1.8,6.6L1.3,7.1c-0.2,0.2-0.2,0.5,0,0.6s0.5,0.2,0.6,0l0.5-0.5
					C2.6,7,2.6,6.7,2.4,6.6z"/>
			</g>
			<g>
				<path class="st0" d="M7.4,4.5c0-0.2,0.2-0.4,0.4-0.4h0.7C8.8,4.1,9,4.3,9,4.5S8.8,4.9,8.6,4.9H7.9C7.6,4.9,7.4,4.7,7.4,4.5z"/>
			</g>
			<g>
				<path class="st0" d="M1.6,4.5c0-0.2-0.2-0.4-0.4-0.4H0.4C0.2,4.1,0,4.3,0,4.5s0.2,0.4,0.4,0.4h0.7C1.4,4.9,1.6,4.7,1.6,4.5z"/>
			</g>
			<g>
				<path class="st0" d="M6.6,6.6c0.2-0.2,0.5-0.2,0.6,0l0.5,0.5c0.2,0.2,0.2,0.5,0,0.6c-0.2,0.2-0.5,0.2-0.6,0L6.6,7.2
					C6.4,7,6.4,6.7,6.6,6.6z"/>
			</g>
			<g>
				<path class="st0" d="M2.4,2.4c0.2-0.2,0.2-0.5,0-0.6L1.9,1.3c-0.2-0.2-0.5-0.2-0.6,0c-0.2,0.2-0.2,0.5,0,0.6l0.5,0.5
					C2,2.6,2.3,2.6,2.4,2.4z"/>
			</g>
		</g>
	</g>
</g>
</svg>
