<?xml version="1.0" encoding="utf-8"?>
<!-- Generator: Adobe Illustrator 22.1.0, SVG Export Plug-In . SVG Version: 6.00 Build 0)  -->
<svg version="1.1" id="Capa_1" xmlns="http://www.w3.org/2000/svg" xmlns:xlink="http://www.w3.org/1999/xlink" x="0px" y="0px"
	 viewBox="0 0 22 22" style="enable-background:new 0 0 22 22;" xml:space="preserve">
<style type="text/css">
	.st0{fill:#9AA8A8;}
</style>
<g>
	<path class="st0" d="M22,8.1L11,0L0,8.1l0.8,1l0.6-0.4V22h19.3V8.8l0.6,0.3L22,8.1z M7.8,5.2h6.4v5.2H7.8V5.2z M18.1,19.4h-1.3
		v-1.3H5.2v1.3H3.9V9.1h1.3v2.6h1.9c1.1,0,1.9,0.9,1.9,1.9c0,0.2,0,0.4-0.1,0.6h9.1V19.4z"/>
	<path class="st0" d="M7.8,13.6c0-0.4-0.3-0.6-0.6-0.6H5.2v1.3h1.9C7.5,14.3,7.8,14,7.8,13.6z"/>
	<path class="st0" d="M9.1,6.5h3.9v2.6H9.1L9.1,6.5z"/>
	<path class="st0" d="M5.2,15.6h11.6v1.3H5.2V15.6z"/>
	<path class="st0" d="M19.4,1.4h-3.9v0.3l3.9,2.9V1.4z"/>
</g>
</svg>
