<?xml version="1.0" encoding="utf-8"?>
<!-- Generator: Adobe Illustrator 22.1.0, SVG Export Plug-In . SVG Version: 6.00 Build 0)  -->
<svg version="1.1" id="Capa_1" xmlns="http://www.w3.org/2000/svg" xmlns:xlink="http://www.w3.org/1999/xlink" x="0px" y="0px"
	 viewBox="0 0 24 24" style="enable-background:new 0 0 24 24;" xml:space="preserve">
<style type="text/css">
	.st0{fill:#A9C451;}
</style>
<g>
	<g>
		<g>
			<path class="st0" d="M21.7,9.9c-0.2-0.1-0.4,0-0.5,0.1l-3.1,3.1c-0.2,0.2-0.5,0.4-0.8,0.4L14.8,14c-0.5,0.1-1-0.1-1.4-0.4
				c-0.4-0.4-0.5-0.9-0.4-1.4l0.4-2.2h-8C5.2,10,5,9.8,5,9.5C5,9.2,5.2,9,5.5,9h8.4c0,0,0,0,0-0.1L15.9,7H5.5C5.2,7,5,6.8,5,6.5
				S5.2,6,5.5,6h11c0.1,0,0.2,0,0.3,0.1L20,2.9c0.3-0.3,0.6-0.5,1-0.6c0.2-0.1,0.3-0.2,0.3-0.4c0-0.2-0.1-0.4-0.2-0.5
				C20.8,1.1,20.4,1,20,1H2C0.9,1,0,1.9,0,3v19.5c0,0.2,0.1,0.4,0.3,0.5c0.1,0,0.1,0,0.2,0c0.1,0,0.3-0.1,0.4-0.1L5.7,18H20
				c1.1,0,2-0.9,2-2v-5.7C22,10.1,21.9,9.9,21.7,9.9z M11.5,13h-6C5.2,13,5,12.8,5,12.5C5,12.2,5.2,12,5.5,12h6
				c0.3,0,0.5,0.2,0.5,0.5C12,12.8,11.8,13,11.5,13z"/>
			<path class="st0" d="M22.1,3c-0.5,0-1,0.2-1.4,0.6l-6.1,6.1c-0.1,0.1-0.1,0.2-0.1,0.3L14,12.4c0,0.2,0,0.3,0.1,0.5
				c0.1,0.1,0.2,0.1,0.4,0.1c0,0,0.1,0,0.1,0l2.5-0.5c0.1,0,0.2-0.1,0.3-0.1l6.1-6.1c0,0,0,0,0,0C23.8,5.9,24,5.4,24,4.9
				C24,3.9,23.1,3,22.1,3z M21.3,7L20,5.7L20.7,5L22,6.3L21.3,7z"/>
		</g>
	</g>
</g>
</svg>
