<?xml version="1.0" encoding="utf-8"?>
<!-- Generator: Adobe Illustrator 22.1.0, SVG Export Plug-In . SVG Version: 6.00 Build 0)  -->
<svg version="1.1" id="Capa_1" xmlns="http://www.w3.org/2000/svg" xmlns:xlink="http://www.w3.org/1999/xlink" x="0px" y="0px"
	 viewBox="0 0 13 13" style="enable-background:new 0 0 13 13;" xml:space="preserve">
<style type="text/css">
	.st0{fill:#D2F159;}
</style>
<g>
	<g>
		<g>
			<path class="st0" d="M0.2,6.9C1,7.6,1.8,8.3,3.5,8.3s2.6-0.7,3.3-1.4c0.7-0.6,1.4-1.2,2.7-1.2s1.9,0.5,2.7,1.2
				c0.2,0.2,0.5,0.2,0.7-0.1c0.2-0.2,0.2-0.5-0.1-0.7C12,5.4,11.2,4.7,9.5,4.7S6.9,5.5,6.2,6.1C5.4,6.7,4.8,7.3,3.5,7.3
				S1.6,6.8,0.8,6.1C0.6,5.9,0.3,6,0.1,6.2C-0.1,6.4,0,6.7,0.2,6.9z"/>
			<path class="st0" d="M0.2,4.1C1,4.8,1.8,5.5,3.5,5.5s2.6-0.7,3.3-1.4c0.7-0.6,1.4-1.2,2.7-1.2s1.9,0.5,2.7,1.2
				c0.2,0.2,0.5,0.2,0.7-0.1c0.2-0.2,0.2-0.5-0.1-0.7C12,2.6,11.2,1.9,9.5,1.9S6.9,2.6,6.2,3.3C5.4,4,4.8,4.5,3.5,4.5S1.6,4,0.8,3.3
				C0.6,3.2,0.3,3.2,0.1,3.4C-0.1,3.6,0,3.9,0.2,4.1z"/>
			<path class="st0" d="M12.8,8.9C12,8.2,11.2,7.5,9.5,7.5S6.9,8.2,6.2,8.9c-0.7,0.6-1.4,1.2-2.7,1.2S1.6,9.6,0.8,8.9l0,0
				c-0.2-0.2-0.5-0.2-0.7,0C-0.1,9.2,0,9.5,0.2,9.7c0.8,0.7,1.6,1.4,3.3,1.4s2.6-0.7,3.3-1.4C7.6,9,8.2,8.5,9.5,8.5s1.9,0.5,2.7,1.2
				c0.2,0.2,0.5,0.2,0.7-0.1C13.1,9.4,13,9.1,12.8,8.9z"/>
		</g>
	</g>
</g>
</svg>
