<?xml version="1.0" encoding="utf-8"?>
<!-- Generator: Adobe Illustrator 22.1.0, SVG Export Plug-In . SVG Version: 6.00 Build 0)  -->
<svg version="1.1" id="Capa_1" xmlns="http://www.w3.org/2000/svg" xmlns:xlink="http://www.w3.org/1999/xlink" x="0px" y="0px"
	 viewBox="0 0 22 22" style="enable-background:new 0 0 22 22;" xml:space="preserve">
<style type="text/css">
	.st0{fill:#A9C451;}
</style>
<g>
	<g>
		<path class="st0" d="M21.6,20.7c-0.3-0.2-1.9-1.2-2.8-3c2.1-1.9,3.2-4.6,3.2-7.4C22,4.7,17,0,11,0S0,4.7,0,10.4s5,10.4,11,10.4
			c0.8,0,1.7-0.1,2.9-0.3c3.2,1.7,6,1.6,7.1,1.6c0.5,0,0.8,0.1,1-0.4C22.1,21.2,21.9,20.9,21.6,20.7z M12.3,15.6
			c0,0.7-0.6,1.3-1.3,1.3s-1.3-0.6-1.3-1.3v-5.2c0-0.7,0.6-1.3,1.3-1.3s1.3,0.6,1.3,1.3V15.6z M11,7.1c-0.7,0-1.3-0.6-1.3-1.3
			c0-0.7,0.6-1.3,1.3-1.3s1.3,0.6,1.3,1.3C12.3,6.5,11.7,7.1,11,7.1z"/>
	</g>
</g>
</svg>
