<?xml version="1.0" encoding="utf-8"?>
<!-- Generator: Adobe Illustrator 22.1.0, SVG Export Plug-In . SVG Version: 6.00 Build 0)  -->
<svg version="1.1" id="Capa_1" xmlns="http://www.w3.org/2000/svg" xmlns:xlink="http://www.w3.org/1999/xlink" x="0px" y="0px"
	 viewBox="0 0 13 13" style="enable-background:new 0 0 13 13;" xml:space="preserve">
<style type="text/css">
	.st0{fill:#0284A8;}
</style>
<g>
	<g>
		<circle class="st0" cx="8" cy="1.5" r="1.5"/>
		<path class="st0" d="M11.7,5c-1.3-0.1-2.6-1.5-2.9-1.7C8.6,3.1,8.4,3,8.1,3c0,0-0.2,0-0.3,0C7.7,3,7.4,3,7.1,3.3
			c0,0-0.2,0.2-0.3,0.2C6.4,4,5.2,5.3,4.6,6.8C4.5,7,4.6,7.2,4.7,7.4L4,8.6L3,8C2.9,8,2.8,8,2.7,8.1l-1.9,3.3
			c-0.1,0.1,0,0.3,0.1,0.3l0.7,0.4c-0.1,0.2-0.1,0.5,0.1,0.7c0.2,0.2,0.6,0.2,0.8,0c0.2-0.2,0.2-0.5,0-0.7l1-1.8l0.7-1.3l0.9-1.5
			c0.2,0,0.4-0.2,0.4-0.3c0.3-0.6,0.6-1.2,1-1.7l0.2,2c0,0.2,0.1,0.4,0.3,0.6C6.7,8.9,5.4,11.2,5,11.9c-0.2,0.3-0.1,0.8,0.3,1
			C5.4,13,5.5,13,5.7,13c0.2,0,0.4-0.1,0.6-0.4c0.4-0.7,1.5-2.9,2-3.7c0.4,0.6,1,1.8,1.8,3.6c0.1,0.3,0.4,0.4,0.7,0.4
			c0.1,0,0.2,0,0.3-0.1c0.4-0.2,0.5-0.6,0.4-0.9c-1-2.2-1.7-3.4-2.1-4c0.2-0.2,0.2-0.4,0.2-0.7L9.3,5.3c0.5,0.4,1.1,0.7,2.2,0.8
			c0,0,0,0,0.1,0c0.3,0,0.5-0.2,0.6-0.5C12.2,5.3,12,5,11.7,5z M2.2,12.7c-0.1,0-0.2-0.1-0.2-0.2s0.1-0.2,0.2-0.2
			c0.1,0,0.2,0.1,0.2,0.2C2.4,12.6,2.3,12.7,2.2,12.7z"/>
	</g>
</g>
</svg>
