<?xml version="1.0" encoding="utf-8"?>
<!-- Generator: Adobe Illustrator 22.1.0, SVG Export Plug-In . SVG Version: 6.00 Build 0)  -->
<svg version="1.1" id="Capa_1" xmlns="http://www.w3.org/2000/svg" xmlns:xlink="http://www.w3.org/1999/xlink" x="0px" y="0px"
	 viewBox="0 0 22 22" style="enable-background:new 0 0 22 22;" xml:space="preserve">
<style type="text/css">
	.st0{fill:#A9C451;}
</style>
<g>
	<path class="st0" d="M20.5,19.6c-2.3,0-4.9,0-5.7,0v-1.4H20c-0.4-1.3-0.8-2.5-0.8-2.5c-0.4,0-2,0-3.9,0c-1.2,1.1-2.3,2.2-3.2,3.5
		l-1,1.4l-1-1.4c-1-1.4-2.1-2.4-3.2-3.5c-2.3,0-3.9,0-3.9,0c0,0-0.4,1.2-0.8,2.5h5.2v1.4c-1,0-3.5,0-5.7,0C1.1,20.9,0.7,22,0.7,22
		h20.5C21.3,22,20.9,20.9,20.5,19.6L20.5,19.6z"/>
	<path class="st0" d="M11,18.5c3.1-4.3,7.5-5.9,7.5-11C18.5,3.2,15.3,0,11,0C6.7,0,3.5,3.2,3.5,7.5C3.5,12.6,7.9,14.2,11,18.5z
		 M11,5.8c1.1,0,2.1,0.9,2.1,2.1c0,1.1-0.9,2.1-2.1,2.1c-1.1,0-2.1-0.9-2.1-2.1C8.9,6.7,9.9,5.8,11,5.8z"/>
</g>
</svg>
