<?xml version="1.0" encoding="utf-8"?>
<!-- Generator: Adobe Illustrator 22.1.0, SVG Export Plug-In . SVG Version: 6.00 Build 0)  -->
<svg version="1.1" id="Group_1_1_" xmlns="http://www.w3.org/2000/svg" xmlns:xlink="http://www.w3.org/1999/xlink" x="0px" y="0px"
	 viewBox="0 0 985 354" style="enable-background:new 0 0 985 354;" xml:space="preserve">
<style type="text/css">
	.st0{fill-rule:evenodd;clip-rule:evenodd;fill:#0284A8;}
	.st1{fill-rule:evenodd;clip-rule:evenodd;fill:#F8BF37;}
</style>
<g id="Shape_40">
	<g>
		<path class="st0" d="M297.9,242.4c-5-7.4-25.9,11-25.9,11S302.9,249.9,297.9,242.4z"/>
	</g>
</g>
<g id="Shape_40_copy">
	<g>
		<path class="st0" d="M276.8,227.8c-3.1-3.6-9.4,11.6-9.4,11.6S279.9,231.4,276.8,227.8z"/>
	</g>
</g>
<g id="Shape_40_copy_2">
	<g>
		<path class="st0" d="M914.4,263c0.2,4,26.8,16,26.1-1.3C940,248.4,914.1,257.6,914.4,263z"/>
	</g>
</g>
<g id="Shape_40_copy_4">
	<g>
		<path class="st0" d="M857.1,234.6c-3.5-4.6-10.3,5-8.8,6.8C849.4,242.8,861.7,240.6,857.1,234.6z"/>
	</g>
</g>
<g id="Shape_45">
	<g>
		<path class="st0" d="M442,117.8c-27.7-17.6-69.6-72.4-69.6-72.4l-23.7,12.5c0,0-30.8-35.8-43.2-52.9
			c-12.4-17.1-33.8,13.8-55.7,27.8c-21.9,14.1-140.6,84.9-140.6,84.9s42.1-19.1,84.9-36.2c42.9-17.1,80.7-47.4,94.7-54.3
			c14-6.9,19.3,12.9,13.9,16.7c-5.4,3.8-14.2,12.1-8.4,13.9c5.9,1.8-24.5,15-20.9,20.9s28.2-7.8,36.2-5.6c8,2.2-78,57.1-78,57.1
			s3.2-1.6,26.5-12.5c23.3-11,62-24.4,59.9-19.5c-2.1,4.9,32.3-14.9,44.6-20.9c12.2-6,27.8,12.5,27.8,12.5s-17.9,18.7-16.7,18.1
			c1.2-0.6,7.5-0.4,13.9,0c6.5,0.4-55.7,41.8-55.7,41.8s40.3-16.3,62.7-23.7c22.3-7.4,16.7,8.4,16.7,8.4s5.9-1,13.9,0
			c8,1-4.2,11.1-4.2,11.1s14.1-5.1,27.8-2.8c13.7,2.3,29.3,20,39,12.5C497.7,147.9,469.7,135.4,442,117.8z"/>
	</g>
</g>
<g id="Shape_40_copy_6">
	<g>
		<path class="st0" d="M695,142.9c-1.7-5.6-11.4,1.1-10.7,3.3C684.9,147.9,697.2,150.2,695,142.9z"/>
	</g>
</g>
<g id="Shape_40_copy_5">
	<g>
		<path class="st0" d="M665.1,128.9c-18.5-17.1-41.8,28-34.2,34.9C636.6,168.8,689.1,151.1,665.1,128.9z M639.8,145.6
			c0,0,0.3-7.1,7-11.1c6.7-4.1,12.5-4.2,12.5-4.2S644.9,137.9,639.8,145.6z"/>
	</g>
</g>
<g id="Shape_40_copy_3">
	<g>
		<path class="st0" d="M605.2,237.1c-6.2-11.8-25.7,7.5-23.1,12.3C584,252.9,613.2,252.4,605.2,237.1z"/>
	</g>
</g>
<g id="Shape_36">
	<g>
		<path class="st0" d="M825.5,257.1c-42.7,7.7-15.6-27.5-57.2-26.9c-37.6,0.6-94.4,49.5-87.5,30.2c5-13.9-21.8-14.7-74-3.4
			c-66.7,14.5-37.3-16-33.6-23.5c3.7-7.5-61.1,20.8-104.3,23.5c-43.2,2.7-91.2,3.5-70.7-16.8c20.5-20.3-47.1,3.4-47.1,3.4
			s-114.8,37.8-97.6,6.7c17.2-31.1-26.6-10.6-57.2,6.7c-30.6,17.3-80.7,16.8-80.7,16.8s-72.7,3-102-40.6
			c-23.6-35.3,38.3-66.9,38-66.8C-33.9,199-9.7,284.1,98.7,300.8c108.5,16.6,402.4-12.8,471-26.9s91.8-15.8,90.8,3.4
			c-1.5,31.7,41.6-8.1,70.7-16.8c29.1-8.7,47.7-2,57.2,13.4c12.8,20.7,185-47,185-47S864.1,250.1,825.5,257.1z M242.9,252.8
			c0,0,1.6-5.5-7-2.8c-8.5,2.7-33.4,13.9-33.4,13.9s26.4-16.6,37.6-18.1C251.3,244.3,242.9,252.8,242.9,252.8z M385,245.8
			c-4.7,9.1-5.6,7-5.6,7s4.2-8.3-7-5.6c-11.1,2.7-29.6,7.4-68.2,15.3c0,0,31.5-8.6,52.9-15.3C378.5,240.5,389.7,236.7,385,245.8z
			 M559,245.8c-2.3,2.8-3.3,4.2-3.8,4.9c-0.2,0.4-0.4,0.6-0.4,0.6s0-0.1,0.4-0.6c1-1.9,3.2-7.1-5.9-3.5c-11,4.3-23.4,6.8-30.6,8.4
			c0,0,19-5.5,30.6-11.1C560.9,238.9,563.3,240.6,559,245.8z M772.1,248.6c-2,0.4,0.4-6.2-12.5-4.2c-12.9,2-33.8,8.5-44.6,12.5
			c0,0,35.5-20.2,52.9-20.9C785.3,235.4,774.1,248.2,772.1,248.6z"/>
	</g>
</g>
<g id="Отдых">
	<g>
		<path class="st1" d="M249,168.9c-1.9,0-4,0.3-6.1,0.9c-2.1,0.6-4.1,1.5-6,2.5c-1.9,1.1-3.7,2.3-5.3,3.7c-1.6,1.4-2.9,2.9-4,4.5
			c0-1.9-0.4-3.6-1.2-5.1c-0.8-1.5-1.8-2.7-3-3.7c-1.3-1-2.7-1.8-4.4-2.2c-1.7-0.5-3.4-0.7-5.1-0.7c-1.9,0-3.9,0.3-5.8,0.9
			c-1.9,0.6-3.7,1.4-5.5,2.5c-1.7,1-3.3,2.3-4.8,3.7c-1.5,1.4-2.7,2.9-3.6,4.5c-0.2-1.6-0.6-3.2-1.3-4.7c-0.7-1.5-1.6-2.8-2.7-4
			c-1.1-1.2-2.4-2.1-3.8-2.8c-1.5-0.7-3-1-4.7-1c-2.4,0-4.6,0.4-6.5,1.2c-1.9,0.8-3.7,1.9-5.2,3.2c-1.5,1.3-2.9,2.9-4.2,4.6
			c-1.3,1.7-2.5,3.5-3.8,5.4l4.5,2.7c0.2-0.3,0.4-0.7,0.7-1.3c0.3-0.5,0.7-1,1.2-1.5c0.4-0.5,0.9-0.9,1.3-1.2
			c0.4-0.3,0.9-0.5,1.4-0.5c0.6,0,1,0.3,1.2,0.8c0.2,0.6,0.2,1,0.2,1.5c0,0.6-0.1,1.1-0.2,1.7c-0.1,0.6-0.3,1.1-0.4,1.7l-7.5,27.9
			h21.6l5.5-20.1c0.2-0.9,0.6-1.8,1.2-2.8c0.6-1,1.2-1.9,2-2.8c0.8-0.8,1.6-1.6,2.5-2.1c0.9-0.6,1.9-0.8,2.8-0.8
			c1.6,0,2.8,0.6,3.5,1.7c0.7,1.1,1.1,2.4,1.1,3.7c0,0.8-0.1,1.6-0.2,2.4c-0.2,0.8-0.4,1.5-0.6,2.2l-5.1,18.6h21.6l5.5-19.6
			c0.3-1,0.7-2.1,1.1-3.1c0.4-1,0.9-2,1.6-2.9c0.6-0.9,1.4-1.6,2.3-2.2c0.9-0.6,2-0.8,3.3-0.8c1.7,0,2.9,0.6,3.7,1.9
			c0.8,1.3,1.2,2.6,1.2,4.2c0,0.8-0.1,1.6-0.2,2.4c-0.2,0.8-0.3,1.6-0.5,2.4l-5,17.8h21.6l7.5-27.4c0.4-1.5,0.6-2.9,0.6-4.5
			c0-4.1-1.3-7.4-4-9.8C256.3,170.1,253,168.9,249,168.9z M149,143.5c-3.7-3.3-8.1-5.8-13.1-7.6c-5-1.8-10.4-2.7-16-2.7
			c-6.5,0-12.9,1-19.1,3c-6.2,2-11.8,5.2-16.8,9.6c-4.2,3.7-7.5,8-10,12.8c13.7-6.1,29-7.2,33.1-7.4c1.7-2.3,3.6-4.4,5.7-6.1
			c3.4-2.8,7.5-4.2,12.3-4.2c3.3,0,6.1,0.8,8.4,2.5c2.3,1.7,4.2,3.8,5.6,6.3c1.4,2.5,2.4,5.3,3,8.3c0.6,3,0.9,5.9,0.9,8.6
			c0,3.9-0.5,8.4-1.6,13.4c-1.1,5-2.7,9.6-4.9,14c-2.2,4.4-5.1,8-8.6,11c-3.5,3-7.7,4.5-12.7,4.5c-3.3,0-6.1-0.9-8.3-2.8
			c-2.2-1.9-4-4.2-5.3-7c-1.3-2.8-2.3-5.8-2.8-9c-0.6-3.2-0.8-6.1-0.8-8.7c0-3.9,0.5-8.2,1.6-12.9c0.8-3.8,2-7.3,3.6-10.7
			c-1.4,0.2-3.7,0.5-7.5,1.2c-15.5,2.8-23.9,10-25.9,12c-0.4,2.4-0.6,4.9-0.6,7.4c0,6,1,11.3,3.1,16c2.1,4.7,4.9,8.7,8.5,12
			c3.6,3.3,7.9,5.8,12.8,7.6c4.9,1.8,10.3,2.7,16,2.7c6.6,0,13.1-0.9,19.6-2.8c6.4-1.9,12.2-5.1,17.3-9.6c4.8-4.3,8.6-9.2,11.2-14.9
			c2.6-5.7,3.9-11.8,3.9-18.3c0-5.9-1.1-11.2-3.3-16C155.6,150.7,152.7,146.7,149,143.5z M463.1,183.4c0.6,2.3,1.9,4,3.7,5.4
			c1.8,1.3,3.9,2,6.2,2c3,0,5.5-1.1,7.6-3.2c2.1-2.1,3.1-4.7,3.1-7.8c0-1.5-0.3-3-0.8-4.4c-0.6-1.4-1.3-2.6-2.3-3.7
			c-1-1-2.1-1.9-3.5-2.5c-1.3-0.6-2.8-1-4.4-1c-1.8,0-3.5,0.3-5.1,1c-1.6,0.7-3.1,1.6-4.6,2.7c-1.5,1.1-2.8,2.4-4.1,3.7
			c-1.3,1.4-2.4,2.7-3.3,4c-1.5-3.3-3.4-6.1-5.7-8.3c-2.3-2.3-5.5-3.4-9.3-3.4c-2.3,0-4.4,0.4-6.3,1.3c-1.9,0.8-3.5,2-5,3.4
			c-1.5,1.4-2.8,3-4.1,4.8c-1.2,1.8-2.3,3.6-3.3,5.4l5,3.1c0.6-0.8,1.2-1.5,1.9-2.1c0.7-0.6,1.6-0.8,2.5-0.8c1.4,0,2.6,0.5,3.7,1.6
			c1.1,1,1.9,2.2,2.5,3.4l4.8,10.4c-1.3,1.9-2.7,3.6-4.4,5c0-2.8-0.9-5.2-2.7-7.2c-1.8-2-4.2-3-7.1-3c-1.5,0-2.8,0.3-4.2,0.9
			c-1.3,0.6-2.5,1.4-3.5,2.4c-1,1-1.8,2.2-2.4,3.5c-0.6,1.3-0.9,2.7-0.9,4.2c0,3.4,1.1,6.3,3.3,8.6s5,3.6,8.5,3.6
			c3.6,0,6.7-1.1,9.6-3.3c2.8-2.2,5.2-4.6,7.1-7.4c1.5,3.2,3.3,5.8,5.7,7.7c2.3,1.9,5.4,2.9,9.2,2.9c2.3,0,4.3-0.4,6.2-1.1
			c1.9-0.8,3.6-1.8,5.1-3.1c1.5-1.3,2.9-2.8,4.1-4.5s2.3-3.5,3.3-5.3l-5.3-3.3c-0.5,0.7-1.1,1.4-1.9,2c-0.8,0.6-1.6,0.9-2.6,0.9
			c-1.6,0-2.8-0.5-3.6-1.4c-0.8-0.9-1.5-2.1-2.2-3.4l-4.7-10.2c0.6-0.7,1.2-1.4,1.8-2.1C461.5,184.3,462.3,183.8,463.1,183.4z
			 M408.6,199.4c-0.9,0.9-1.9,1.3-2.8,1.3c-1.5,0-2.2-0.8-2.2-2.3c0-0.7,0.1-1.5,0.4-2.4l6.8-25.6h-23l-6.2,23.2
			c-0.2,0.9-0.4,1.7-0.5,2.5c-0.1,0.8-0.2,1.6-0.2,2.4c-0.4,5.6,0.5,9.6,2.8,12.2c2.3,2.6,5.8,3.9,10.7,3.9c2.3,0,4.6-0.4,6.7-1.1
			c2.1-0.8,4.1-1.8,5.9-3.1c1.8-1.3,3.5-2.9,5-4.6c1.5-1.7,2.8-3.6,3.9-5.5l0.1-0.1l-5.1-3.3C410.2,197.6,409.5,198.5,408.6,199.4z
			 M307.5,151.8c-3.6-4.1-7.9-7.5-12.8-10.3c-4.9-2.8-10.2-4.9-15.9-6.2l-1.7,6.6c1.9,1,3.9,2.4,6.2,4.2c2.3,1.9,4.4,3.9,6.4,6.2
			c2,2.3,3.6,4.7,4.9,7.3c1.3,2.6,1.9,5,1.9,7.4c-3.9,0-7.6,0.6-11.3,1.7c-3.6,1.1-6.8,2.8-9.6,5c-2.7,2.2-4.9,4.9-6.6,8.2
			c-1.7,3.2-2.5,6.9-2.5,11.1c0,3.4,0.6,6.4,1.9,9.2c1.3,2.7,3,5.1,5.1,6.9c2.2,1.9,4.7,3.4,7.6,4.4c2.9,1,5.9,1.6,9.1,1.6
			c4.8,0,9.1-0.9,12.7-2.7c3.6-1.8,6.6-4.2,9-7.2c2.4-3,4.2-6.5,5.5-10.5c1.2-4,1.8-8.2,1.8-12.8c0-5.9-1.1-11.4-3.1-16.5
			C314,160.5,311.1,155.9,307.5,151.8z M295.5,194.4c-0.4,1.4-1.1,2.7-2,3.7c-0.9,1.1-2,2-3.2,2.7c-1.3,0.7-2.6,1-4.2,1
			c-2.4,0-4.3-0.9-5.5-2.7c-1.3-1.8-1.9-3.8-1.9-6.1c0-1.2,0.2-2.5,0.7-3.9c0.5-1.4,1.2-2.6,2-3.7c0.8-1.1,1.8-2.1,3-2.8
			c1.1-0.7,2.4-1.1,3.8-1.1c2.7,0,4.7,0.8,6,2.4c1.3,1.6,2,3.6,2,6.2C296.1,191.5,295.9,192.9,295.5,194.4z M373.6,182.6
			c-1.3-1.4-2.8-2.5-4.6-3.3c-1.8-0.8-3.7-1.2-5.7-1.4c-2.3-0.2-4.9,0.2-7.8,1c-2.9,0.8-5.4,2.2-7.4,4.2l3.9-12.8h-23l-6.2,23.2
			c-0.2,0.9-0.4,1.7-0.5,2.5c-0.1,0.8-0.2,1.6-0.3,2.4c-0.2,3.2,0.1,5.9,1.1,8.2c1,2.2,2.3,4,4.1,5.4c1.8,1.4,3.9,2.4,6.4,3
			c2.5,0.6,5.1,1,8.1,1c2.4,0.1,5.1,0,8.2-0.2c3-0.2,5.7-0.6,8.1-1.2c2.5-0.6,4.9-1.4,7.1-2.5c2.2-1.1,4.2-2.4,5.9-4
			c1.7-1.6,3.2-3.5,4.3-5.8c1.1-2.3,1.9-4.9,2.2-7.9c0.2-2.5,0-4.7-0.7-6.7C375.9,185.7,374.9,184,373.6,182.6z M354.9,198.2
			c-0.4,1.6-0.9,3.2-1.6,4.7c-0.7,1.5-1.6,2.8-2.7,3.9c-1.1,1.1-2.4,1.6-3.8,1.6c-1,0-1.7-0.4-2.3-1.1c-0.6-0.7-0.8-1.6-0.8-2.5
			s0.2-2.3,0.6-3.9c0.4-1.7,1-3.3,1.8-4.9c0.8-1.6,1.7-3,2.7-4.2c1-1.2,2.2-1.8,3.5-1.8c1,0,1.8,0.5,2.4,1.5c0.6,1,0.9,1.9,0.9,2.9
			C355.5,195.2,355.3,196.6,354.9,198.2z"/>
	</g>
</g>
<g id="_x2E_ru">
	<g>
		<path class="st0" d="M913,156.3c-0.5-0.5-1.1-0.9-1.8-1.2c-0.7-0.3-1.4-0.4-2.2-0.4s-1.5,0.1-2.2,0.4c-0.7,0.3-1.3,0.7-1.8,1.2
			c-0.5,0.5-0.9,1.1-1.3,1.7c-0.3,0.7-0.5,1.4-0.5,2.2c0,0.8,0.2,1.5,0.5,2.2c0.3,0.7,0.7,1.2,1.3,1.7c0.5,0.5,1.1,0.9,1.8,1.2
			c0.7,0.3,1.4,0.4,2.2,0.4s1.5-0.1,2.2-0.4c0.7-0.3,1.3-0.7,1.8-1.2c0.5-0.5,0.9-1.1,1.3-1.7c0.3-0.7,0.5-1.4,0.5-2.2
			c0-0.8-0.2-1.5-0.5-2.2C913.9,157.4,913.5,156.8,913,156.3z M943.7,144.2c-0.5-0.5-1.1-1-1.7-1.3c-0.7-0.3-1.4-0.5-2.2-0.5
			c-0.6,0-1.2,0.1-1.9,0.3c-0.6,0.2-1.2,0.5-1.8,0.9c-0.6,0.4-1.1,0.8-1.5,1.3c-0.4,0.5-0.8,1-1,1.5c-0.1-0.5-0.3-1.1-0.6-1.6
			c-0.3-0.5-0.7-1-1.2-1.4c-0.5-0.4-1-0.7-1.5-1c-0.5-0.2-1.1-0.3-1.7-0.3c-1,0-2,0.2-2.9,0.5c-0.9,0.4-1.7,0.8-2.4,1.4
			c-0.7,0.6-1.4,1.3-2,2c-0.6,0.8-1.1,1.6-1.6,2.4l2.2,1.3c0.2-0.3,0.5-0.7,0.8-1.2c0.4-0.5,0.8-0.7,1.2-0.7c0.3,0,0.5,0.1,0.5,0.3
			c0.1,0.2,0.1,0.4,0.1,0.6c0,0.3,0,0.6-0.1,0.9c-0.1,0.3-0.1,0.6-0.2,0.9l-3.2,11.9h9.6l2.8-10.5c0.1-0.6,0.4-1.1,0.6-1.6
			c0.3-0.5,0.8-0.8,1.5-0.8c0,1.1,0.5,2.1,1.3,3c0.9,0.8,1.9,1.3,3,1.3c0.8,0,1.5-0.2,2.2-0.5c0.7-0.3,1.2-0.8,1.7-1.3
			s0.9-1.2,1.1-1.9c0.3-0.7,0.4-1.4,0.4-2.2c0-0.8-0.1-1.5-0.4-2.2S944.1,144.7,943.7,144.2z M974.8,155c-0.2,0.4-0.5,0.7-0.9,1.1
			c-0.4,0.4-0.8,0.6-1.3,0.6c-0.3,0-0.5-0.1-0.7-0.3c-0.2-0.2-0.3-0.4-0.3-0.7c0-0.3,0.1-0.7,0.2-1.1l3-11.4h-9.6l-2.2,8
			c-0.1,0.4-0.3,0.9-0.5,1.6c-0.3,0.6-0.6,1.2-0.9,1.7c-0.4,0.6-0.8,1-1.2,1.4c-0.5,0.4-1,0.6-1.6,0.6c-0.8,0-1.3-0.3-1.6-0.9
			c-0.3-0.6-0.4-1.2-0.4-1.8c0-0.4,0-0.8,0.1-1.2c0.1-0.4,0.2-0.8,0.3-1.1l2.3-8.3h-9.6l-2.7,10.3c-0.2,0.8-0.3,1.5-0.3,2.2
			c0,2,0.5,3.7,1.6,5.1c1.1,1.4,2.7,2,4.8,2c1.7,0,3.3-0.4,4.9-1.3c1.6-0.9,2.9-2,3.8-3.4c0.1,0.6,0.4,1.3,0.7,1.8
			c0.3,0.6,0.8,1.1,1.2,1.5c0.5,0.4,1,0.8,1.6,1c0.6,0.3,1.2,0.4,1.9,0.4c1,0,2-0.2,3-0.5c0.9-0.3,1.8-0.8,2.6-1.4
			c0.8-0.6,1.5-1.3,2.2-2c0.7-0.8,1.2-1.6,1.7-2.4l0.1-0.1L974.8,155z"/>
	</g>
</g>
<g id="____Курорт">
	<g>
		<path class="st0" d="M594.4,201.4c-1.8,0-3.1-0.7-4.1-2.1l-15.1-23.9l7.8-12c0.7-1.1,1.6-2.3,2.6-3.5c1-1.2,2.2-2.1,3.6-2.5
			c0.2,1.5,0.6,2.9,1.3,4.2c0.7,1.4,1.6,2.6,2.6,3.6c1,1,2.3,1.8,3.6,2.4c1.4,0.6,2.8,0.9,4.4,0.9c2,0,3.9-0.5,5.6-1.4
			c1.7-0.9,3.2-2.2,4.5-3.7c1.3-1.5,2.3-3.2,3-5.1c0.7-1.9,1-3.8,1-5.7c0-2-0.4-3.9-1.2-5.6c-0.8-1.7-1.8-3.2-3.1-4.5
			c-1.3-1.3-2.9-2.3-4.6-3c-1.7-0.7-3.6-1.1-5.6-1.1c-4.2,0-7.9,1.2-11.1,3.6c-3.2,2.4-5.9,5.3-8.1,8.7c-1.1,1.6-2.5,4-4.2,7.1
			c-1.8,3.1-3.8,6.2-5.9,9.4s-4.4,5.9-6.7,8.2c-2.3,2.3-4.4,3.5-6.4,3.5c-1.9,0-2.9-0.9-2.9-2.7c0-0.2,0-0.5,0.1-0.8
			c0-0.3,0.1-0.7,0.2-1.1l4.4-19.8c1-4.8,3.7-8.8,8-11.8l-5-6.6c-2.7,2.3-5.3,3.9-7.8,4.8c-2.5,0.9-5.6,1.3-9,1.3
			c-1.8,0-3.5,0-5.2-0.1c-1.7-0.1-3.4-0.1-5.2-0.1c-5.2,0-9.9,1.1-14.3,3.4c-4.4,2.3-8.2,5.4-11.6,9.4c-3.7,4.6-6.4,9.6-8,15
			c-1.6,5.4-2.4,11-2.4,16.8c-2.1,0.2-4,0.7-5.8,1.5c-1.8,0.8-3.3,2-4.7,3.3c-1.3,1.4-2.4,3-3.1,4.8c-0.8,1.8-1.2,3.7-1.2,5.7
			c0,3.2,0.8,5.9,2.4,8.2c1.6,2.2,3.6,4,6,5.4c2.4,1.4,5.1,2.4,8.1,3c2.9,0.6,5.8,0.9,8.4,0.9c4.5,0,9-0.4,13.6-1.3
			c4.5-0.9,8.7-2.4,12.5-4.4c3.8-2.1,7.2-4.8,10-8.1c2.8-3.3,4.8-7.5,5.9-12.5l1.3-6l17.1,27.1c1.1,1.7,2.6,3,4.4,4
			c1.8,1,3.7,1.5,5.8,1.5c1.1,0,2.2-0.2,3.2-0.5c1-0.3,2-0.8,2.8-1.3l17.3-11l-3.6-7.6C598.3,200.6,596.5,201.4,594.4,201.4z
			 M535.3,154.8c-1.6,2.3-2.7,4.8-3.3,7.6l-8.5,36.4c-0.3,1.4-0.8,2.8-1.3,4.3c-0.6,1.5-1.3,2.9-2.1,4.2c-0.8,1.3-1.9,2.4-3.1,3.2
			s-2.6,1.3-4.1,1.3c-0.7,0-1.5-0.2-2.4-0.5c-0.8-0.4-1.4-0.9-1.8-1.5c1.7-1,3-2.5,3.9-4.5c0.9-1.9,1.4-3.9,1.4-5.8
			c0-2.6-0.7-4.9-2.1-7.1c-1.4-2.1-3.2-3.7-5.6-4.8c-0.1-0.4-0.1-0.8-0.1-1.1v-1.1c0-4.2,0.6-8.4,1.9-12.8c1.3-4.3,3.2-8.2,5.7-11.7
			c2.5-3.5,5.6-6.4,9.2-8.6c3.6-2.2,7.8-3.3,12.5-3.3c0.9,0,1.8,0,2.8,0.1c1,0,1.9,0.1,2.8,0.2C538.9,150.6,536.9,152.5,535.3,154.8
			z M676.5,176.2v-6.2c-1.3-0.4-2.6-0.7-3.8-0.8c-1.3-0.2-2.5-0.2-3.8-0.2c-2.3,0-4.5,0.1-6.6,0.4c-2.1,0.3-4.1,0.8-5.9,1.7
			s-3.4,2-4.8,3.6c-1.4,1.5-2.4,3.5-3,6l-3.3,12.4c-0.2,1-0.6,2.1-1.2,3.4c-0.6,1.3-1.3,2.6-2.1,3.8c-0.8,1.2-1.8,2.2-2.8,3.1
			c-1.1,0.8-2.2,1.3-3.4,1.3c-1.5,0-2.5-0.6-3.1-1.8c-0.6-1.2-0.9-2.4-0.9-3.6c0-1.3,0.1-2.6,0.4-3.8c0.3-1.2,0.6-2.5,1-3.7
			c0.4-1.2,0.7-2.4,1-3.7c0.3-1.2,0.5-2.5,0.5-3.8c0-1.8-0.3-3.5-0.9-5.1c-0.6-1.7-1.5-3.1-2.5-4.4c-1.1-1.3-2.4-2.3-3.9-3.1
			c-1.5-0.8-3.2-1.1-5.1-1.1c-2.4,0-4.6,0.4-6.5,1.2c-1.9,0.8-3.6,1.9-5.2,3.2s-3,2.9-4.3,4.6c-1.3,1.7-2.5,3.5-3.6,5.4l4.5,2.7
			c0.4-0.7,1-1.7,1.9-2.9c0.9-1.2,1.8-1.8,2.8-1.8c0.6,0,0.9,0.3,1.1,0.8c0.2,0.6,0.2,1,0.2,1.5c0,1-0.1,1.9-0.4,2.7
			c-0.2,1.1-0.5,2.4-0.9,3.7s-0.7,2.7-1,4c-0.3,1.4-0.6,2.7-0.8,4.1c-0.2,1.4-0.4,2.6-0.4,3.6c0,4.2,1.2,7.5,3.5,9.9
			c2.3,2.4,5.6,3.6,9.8,3.6c3.2,0,6.4-0.6,9.5-1.9c3.1-1.3,5.9-2.9,8.4-4.8c-0.7,2.7-1.4,5.1-2.1,7.4c-0.6,2.3-1.5,4.4-2.5,6.2
			c-1.1,1.9-2.5,3.5-4.2,4.9c-1.8,1.4-4.2,2.5-7.1,3.3l1.3,6.4c10.3,0,18.4-2.4,24.3-7.2c5.9-4.8,10.1-12.2,12.7-22.2l6.5-25.6
			c0.4-1.6,1.2-3.1,2.4-4.6C673.1,177.3,674.6,176.5,676.5,176.2z M739.1,176c-1.7-1.7-3.8-3-6.1-4c-2.3-1-4.8-1.5-7.4-1.5
			c-3.6,0-7,0.7-10.1,2.1c-3.1,1.4-5.9,3.3-8.3,5.7c-1-2.3-2.5-4.3-4.5-5.9c-2-1.6-4.4-2.4-7-2.4c-2.5,0-4.7,0.4-6.6,1.2
			c-1.9,0.8-3.6,1.9-5.1,3.2c-1.5,1.3-2.9,2.9-4.2,4.6c-1.3,1.7-2.5,3.5-3.7,5.4l4.4,2.8c0.4-0.7,1-1.7,1.9-2.8
			c0.9-1.1,1.8-1.7,2.7-1.7c0.6,0,1,0.3,1.2,0.8c0.2,0.5,0.2,1,0.2,1.4c0,0.9-0.2,2-0.6,3.4l-13.2,49.4h21.6l7-25.9
			c1.8,1.7,3.8,3,6.2,3.9c2.3,0.9,4.8,1.3,7.3,1.3c3.9,0,7.6-0.7,11.3-2.1c3.6-1.4,6.8-3.4,9.6-5.9c2.8-2.5,5-5.5,6.7-8.9
			c1.7-3.4,2.5-7.1,2.5-11.2c0-2.6-0.5-5-1.6-7.3C742.2,179.7,740.8,177.7,739.1,176z M717.7,196.4c-0.4,1.7-1.1,3.3-2,4.8
			c-0.9,1.5-2,2.7-3.2,3.7c-1.3,1-2.7,1.5-4.4,1.5c-1.1,0-2.1-0.4-3-1.1c-0.8-0.7-1.4-1.7-1.6-2.8l3.4-12.8c0.4-1.4,1.1-2.6,2.1-3.7
			c1-1.1,2.2-1.6,3.7-1.6c1.9,0,3.3,0.8,4.2,2.4c1,1.6,1.5,3.3,1.5,5C718.4,193.2,718.2,194.7,717.7,196.4z M800.5,183.4
			c-1.3-2.7-2.9-5.1-5.1-7c-2.1-1.9-4.7-3.4-7.6-4.4c-2.9-1-6-1.5-9.2-1.5c-3.8,0-7.4,0.6-11,1.8c-3.5,1.2-6.6,2.9-9.3,5.2
			c-2.7,2.3-4.8,5-6.4,8.2c-1.6,3.2-2.4,6.8-2.4,10.9c0,3.4,0.6,6.4,1.8,9.1c1.2,2.7,2.8,5,4.9,6.9c2.1,1.9,4.6,3.4,7.4,4.4
			c2.8,1,5.9,1.5,9.2,1.5c3.9,0,7.6-0.6,11.1-1.8c3.5-1.2,6.6-2.9,9.4-5.1c2.7-2.2,4.9-4.9,6.5-8.2c1.6-3.2,2.4-6.9,2.4-11
			C802.3,189.2,801.7,186.1,800.5,183.4z M789.6,196.5c-0.4,1.4-1.1,2.6-1.9,3.7c-0.8,1.1-1.8,2.1-3,2.8c-1.2,0.7-2.4,1.1-3.8,1.1
			c-2.6,0-4.6-0.9-6.1-2.6c-1.5-1.7-2.2-3.8-2.2-6.3c0-1.4,0.2-2.7,0.7-4c0.5-1.3,1.2-2.5,2-3.6s1.9-2,3.1-2.7c1.3-0.7,2.6-1,4.1-1
			c2.4,0,4.3,0.9,5.6,2.7c1.3,1.8,2,3.8,2,6.1C790.2,193.9,790,195.2,789.6,196.5z M866.8,176c-1.7-1.7-3.8-3-6.1-4
			c-2.3-1-4.8-1.5-7.4-1.5c-3.6,0-7,0.7-10.1,2.1c-3.1,1.4-5.9,3.3-8.3,5.7c-1-2.3-2.5-4.3-4.5-5.9c-2-1.6-4.4-2.4-7-2.4
			c-2.5,0-4.7,0.4-6.6,1.2c-1.9,0.8-3.6,1.9-5.1,3.2c-1.5,1.3-2.9,2.9-4.2,4.6c-1.3,1.7-2.5,3.5-3.7,5.4l4.4,2.8
			c0.4-0.7,1-1.7,1.9-2.8c0.9-1.1,1.8-1.7,2.7-1.7c0.6,0,1,0.3,1.2,0.8c0.2,0.5,0.2,1,0.2,1.4c0,0.9-0.2,2-0.6,3.4l-13.2,49.4H822
			l7-25.9c1.8,1.7,3.8,3,6.2,3.9c2.3,0.9,4.8,1.3,7.3,1.3c3.9,0,7.6-0.7,11.3-2.1c3.6-1.4,6.8-3.4,9.6-5.9c2.8-2.5,5-5.5,6.7-8.9
			c1.7-3.4,2.5-7.1,2.5-11.2c0-2.6-0.5-5-1.6-7.3C870,179.7,868.6,177.7,866.8,176z M845.5,196.4c-0.4,1.7-1.1,3.3-2,4.8
			c-0.9,1.5-2,2.7-3.2,3.7c-1.3,1-2.7,1.5-4.4,1.5c-1.1,0-2.1-0.4-3-1.1c-0.8-0.7-1.4-1.7-1.6-2.8l3.4-12.8c0.4-1.4,1.1-2.6,2.1-3.7
			c1-1.1,2.2-1.6,3.7-1.6c1.9,0,3.3,0.8,4.2,2.4c1,1.6,1.5,3.3,1.5,5C846.2,193.2,846,194.7,845.5,196.4z M971.8,175.1
			c-2.7-2.4-6-3.6-9.9-3.6c-1.9,0-4,0.3-6.1,0.9c-2.1,0.6-4.1,1.5-6,2.5c-1.9,1.1-3.7,2.3-5.3,3.7c-1.6,1.4-2.9,2.9-4,4.5
			c0-1.9-0.4-3.6-1.2-5.1c-0.8-1.5-1.8-2.7-3-3.7c-1.3-1-2.7-1.8-4.4-2.2c-1.7-0.5-3.4-0.7-5.1-0.7c-1.9,0-3.9,0.3-5.8,0.9
			c-1.9,0.6-3.7,1.4-5.5,2.5c-1.7,1-3.3,2.3-4.8,3.7c-1.5,1.4-2.7,2.9-3.6,4.5c-0.2-1.6-0.6-3.2-1.3-4.7c-0.7-1.5-1.6-2.8-2.7-4
			c-1.1-1.2-2.4-2.1-3.8-2.8c-1.5-0.7-3-1-4.7-1c-2.4,0-4.6,0.4-6.5,1.2c-1.9,0.8-3.7,1.9-5.2,3.2c-1.5,1.3-2.9,2.9-4.2,4.6
			c-1.3,1.7-2.5,3.5-3.8,5.4l4.5,2.7c0.2-0.3,0.4-0.7,0.7-1.3c0.3-0.5,0.7-1,1.2-1.5c0.4-0.5,0.9-0.9,1.3-1.2
			c0.4-0.3,0.9-0.5,1.4-0.5c0.6,0,1,0.3,1.2,0.8c0.2,0.6,0.2,1,0.2,1.5c0,0.6-0.1,1.1-0.2,1.7c-0.1,0.6-0.3,1.1-0.4,1.7l-7.5,27.9
			H899l5.5-20.1c0.2-0.9,0.6-1.8,1.2-2.8c0.6-1,1.2-1.9,2-2.8c0.8-0.8,1.6-1.6,2.5-2.1c0.9-0.6,1.9-0.8,2.8-0.8
			c1.6,0,2.8,0.6,3.5,1.7c0.7,1.1,1.1,2.4,1.1,3.7c0,0.8-0.1,1.6-0.2,2.4c-0.2,0.8-0.4,1.5-0.6,2.2l-5.1,18.6h21.6l5.5-19.6
			c0.3-1,0.7-2.1,1.1-3.1c0.4-1,0.9-2,1.6-2.9c0.6-0.9,1.4-1.6,2.3-2.2c0.9-0.6,2-0.8,3.3-0.8c1.7,0,2.9,0.6,3.7,1.9
			c0.8,1.3,1.2,2.6,1.2,4.2c0,0.8-0.1,1.6-0.2,2.4c-0.2,0.8-0.3,1.6-0.5,2.4l-5,17.8h21.6l7.5-27.4c0.4-1.5,0.6-2.9,0.6-4.5
			C975.8,180.8,974.4,177.6,971.8,175.1z"/>
	</g>
</g>
<g id="Shape_44">
	<g>
		<path class="st1" d="M773.4,270.9c-8.3-21.5-69.1,7.8-89.1,20.9c-20,13.1-34.9,11.1-30.6-2.8c4.2-13.9-7.1-18.3-27.8-15.3
			c-20.8,3-158.7,23.7-158.7,23.7s20,2.8,108.6-9.7s54.2,4.7,48.7,19.5c-5.5,14.8-6.8,53.4,25.1,41.8c31.9-11.7,20-20.2,107.2-40.4
			c87.2-20.2,118.4-40.4,118.4-40.4C806.5,293.5,781.7,292.4,773.4,270.9z"/>
	</g>
</g>
</svg>
