<?xml version="1.0" encoding="utf-8"?>
<!-- Generator: Adobe Illustrator 22.1.0, SVG Export Plug-In . SVG Version: 6.00 Build 0)  -->
<svg version="1.1" id="Capa_1" xmlns="http://www.w3.org/2000/svg" xmlns:xlink="http://www.w3.org/1999/xlink" x="0px" y="0px"
	 viewBox="0 0 23 23" style="enable-background:new 0 0 23 23;" xml:space="preserve">
<style type="text/css">
	.st0{fill:#FFFFFF;}
</style>
<g>
	<g>
		<path class="st0" d="M22,18.2h-2.6c-0.4-1.4-1.7-2.4-3.2-2.4s-2.8,1-3.2,2.4H1c-0.5,0-1,0.4-1,1s0.4,1,1,1h12.1
			c0.4,1.4,1.7,2.4,3.2,2.4s2.8-1,3.2-2.4H22c0.5,0,1-0.4,1-1S22.6,18.2,22,18.2z M16.3,20.6c-0.8,0-1.4-0.6-1.4-1.4
			s0.6-1.4,1.4-1.4s1.4,0.6,1.4,1.4S17.1,20.6,16.3,20.6z"/>
	</g>
</g>
<g>
	<g>
		<path class="st0" d="M22,2.9h-2.6c-0.4-1.4-1.7-2.4-3.2-2.4s-2.8,1-3.2,2.4H1c-0.5,0-1,0.4-1,1s0.4,1,1,1h12.1
			c0.4,1.4,1.7,2.4,3.2,2.4s2.8-1,3.2-2.4H22c0.5,0,1-0.4,1-1S22.6,2.9,22,2.9z M16.3,5.3c-0.8,0-1.4-0.6-1.4-1.4s0.6-1.4,1.4-1.4
			s1.4,0.6,1.4,1.4S17.1,5.3,16.3,5.3z"/>
	</g>
</g>
<g>
	<g>
		<path class="st0" d="M22,10.5H9.9C9.5,9.2,8.2,8.1,6.7,8.1s-2.8,1-3.2,2.4H1c-0.5,0-1,0.4-1,1s0.4,1,1,1h2.6
			c0.4,1.4,1.7,2.4,3.2,2.4s2.8-1,3.2-2.4H22c0.5,0,1-0.4,1-1C23,11,22.6,10.5,22,10.5z M6.7,12.9c-0.8,0-1.4-0.6-1.4-1.4
			s0.6-1.4,1.4-1.4s1.4,0.6,1.4,1.4S7.5,12.9,6.7,12.9z"/>
	</g>
</g>
</svg>
