<?xml version="1.0" encoding="utf-8"?>
<!-- Generator: Adobe Illustrator 22.1.0, SVG Export Plug-In . SVG Version: 6.00 Build 0)  -->
<svg version="1.1" id="Capa_1" xmlns="http://www.w3.org/2000/svg" xmlns:xlink="http://www.w3.org/1999/xlink" x="0px" y="0px"
	 viewBox="0 0 19 19" style="enable-background:new 0 0 19 19;" xml:space="preserve">
<style type="text/css">
	.st0{fill:#FFFFFF;}
</style>
<g>
	<path class="st0" d="M9.5,0C4.3,0,0,4.3,0,9.5S4.3,19,9.5,19S19,14.7,19,9.5S14.7,0,9.5,0z M9.5,17.4c-4.3,0-7.9-3.5-7.9-7.9
		s3.5-7.9,7.9-7.9s7.9,3.5,7.9,7.9S13.8,17.4,9.5,17.4z"/>
	<path class="st0" d="M13.2,5.8c-0.3-0.3-0.8-0.3-1.2,0L9.5,8.3L7,5.8c-0.3-0.3-0.8-0.3-1.2,0S5.5,6.7,5.8,7l2.5,2.5L5.8,12
		c-0.3,0.3-0.3,0.8,0,1.2c0.2,0.2,0.4,0.2,0.6,0.2c0.2,0,0.4-0.1,0.6-0.2l2.5-2.5l2.5,2.5c0.2,0.2,0.4,0.2,0.6,0.2
		c0.2,0,0.4-0.1,0.6-0.2c0.3-0.3,0.3-0.8,0-1.2l-2.5-2.5L13.2,7C13.5,6.7,13.5,6.1,13.2,5.8z"/>
</g>
</svg>
