<?xml version="1.0" encoding="utf-8"?>
<!-- Generator: Adobe Illustrator 22.1.0, SVG Export Plug-In . SVG Version: 6.00 Build 0)  -->
<svg version="1.1" id="Capa_1" xmlns="http://www.w3.org/2000/svg" xmlns:xlink="http://www.w3.org/1999/xlink" x="0px" y="0px"
	 viewBox="0 0 22 22" style="enable-background:new 0 0 22 22;" xml:space="preserve">
<style type="text/css">
	.st0{fill:#A9C451;}
</style>
<g>
	<path class="st0" d="M21.4,9.2h-0.8c0.2-0.6,0.4-1.2,0.4-1.9c0-1.3-0.5-2.5-1.3-3.4c-0.8-0.8-1.8-1.4-3-1.6C16,0.9,14.6,0,13,0
		c-1.3,0-2.4,0.6-3.2,1.6l-9.2,0C0.3,1.6,0,1.9,0,2.2c0,2.3,1.8,4.1,4.1,4.1h5.7c0.3,0.4,0.6,0.7,1,0.9c0,0,0,0,0,0
		c0,0.7,0.1,1.3,0.4,1.9h1.4c-0.2-0.4-0.4-0.9-0.5-1.3c0.3,0.1,0.6,0.1,0.9,0.1c2.2,0,4-1.8,4-4c0-0.1,0-0.2,0-0.3
		c0.6,0.2,1.2,0.5,1.7,1c0.6,0.7,1,1.6,1,2.5c0,0.6-0.2,1.2-0.5,1.8c0,0,0,0.1,0,0.1h-6.5c0.7,1.1,1.9,1.9,3.2,1.9
		c0.4,0,0.6,0.3,0.6,0.6c0,0.4-0.3,0.6-0.6,0.6c-2.1,0-3.9-1.3-4.7-3.1h-0.7c-0.4,0-0.6,0.3-0.6,0.6v11.5c0,0.4,0.3,0.6,0.6,0.6
		h10.9c0.4,0,0.6-0.3,0.6-0.6V9.8C22,9.5,21.7,9.2,21.4,9.2L21.4,9.2z M10.8,7.3c0-1.5,0.6-2.8,1.7-3.8c0.3-0.2,0.7-0.2,0.9,0.1
		c0.2,0.3,0.2,0.7-0.1,0.9c-0.8,0.7-1.3,1.7-1.3,2.8c0,0.2,0,0.4,0,0.6C11.6,7.7,11.2,7.5,10.8,7.3L10.8,7.3z M17,15.6v-1.7
		c0-0.4,0.3-0.6,0.6-0.6c0.4,0,0.6,0.3,0.6,0.6v4.9c0,0.4-0.3,0.6-0.6,0.6c-0.4,0-0.6-0.3-0.6-0.6v-1.9h-2.1v1.9
		c0,0.4-0.3,0.6-0.6,0.6c-0.4,0-0.6-0.3-0.6-0.6v-4.9c0-0.4,0.3-0.6,0.6-0.6c0.4,0,0.6,0.3,0.6,0.6v1.7H17z"/>
</g>
</svg>
