<?xml version="1.0" encoding="utf-8"?>
<!-- Generator: Adobe Illustrator 22.1.0, SVG Export Plug-In . SVG Version: 6.00 Build 0)  -->
<svg version="1.1" id="Capa_1" xmlns="http://www.w3.org/2000/svg" xmlns:xlink="http://www.w3.org/1999/xlink" x="0px" y="0px"
	 viewBox="0 0 16 16" style="enable-background:new 0 0 16 16;" xml:space="preserve">
<style type="text/css">
	.st0{fill:#B5B5B5;}
</style>
<g>
	<g>
		<rect y="5.2" class="st0" width="16" height="0.9"/>
	</g>
</g>
<g>
	<g>
		<path class="st0" d="M3.8,8.9c-0.5,0-0.9,0.4-0.9,0.9s0.4,0.9,0.9,0.9s0.9-0.4,0.9-0.9S4.3,8.9,3.8,8.9z"/>
	</g>
</g>
<g>
	<g>
		<path class="st0" d="M14.6,2.4H1.4C0.6,2.4,0,3,0,3.8v0.5h16V3.8C16,3,15.4,2.4,14.6,2.4z"/>
	</g>
</g>
<g>
	<g>
		<path class="st0" d="M0,7.1v5.2c0,0.8,0.6,1.4,1.4,1.4h13.2c0.8,0,1.4-0.6,1.4-1.4V7.1H0z M10.3,10.3c0,0.3-0.2,0.5-0.5,0.5
			c-0.3,0-0.5-0.2-0.5-0.5V9.9H8.4v0.5c0,0.3-0.2,0.5-0.5,0.5c-0.3,0-0.5-0.2-0.5-0.5V9.9H5.6c0,1-0.8,1.9-1.9,1.9s-1.9-0.8-1.9-1.9
			S2.7,8,3.8,8C4.4,8,5,8.4,5.4,8.9h4.5c0.3,0,0.5,0.2,0.5,0.5V10.3z"/>
	</g>
</g>
</svg>
