<?xml version="1.0" encoding="utf-8"?>
<!-- Generator: Adobe Illustrator 22.1.0, SVG Export Plug-In . SVG Version: 6.00 Build 0)  -->
<svg version="1.1" id="Capa_1" xmlns="http://www.w3.org/2000/svg" xmlns:xlink="http://www.w3.org/1999/xlink" x="0px" y="0px"
	 viewBox="0 0 22 22" style="enable-background:new 0 0 22 22;" xml:space="preserve">
<style type="text/css">
	.st0{fill:#A9C451;}
</style>
<g>
	<g>
		<g>
			<path class="st0" d="M11.4,17.4c-0.6,0-1.3-0.2-1.7-0.7l-3.2-2.8c-0.5-0.5-1.3-0.5-1.8-0.1L0,17.2v2.2c0,0.6,0.4,1.1,1,1.1
				c0,0,0.1,0,0.1,0h16.3c0.7,0,1.3-0.5,1.3-1.1v-5.7L12.8,17C12.4,17.3,11.9,17.4,11.4,17.4z"/>
			<circle class="st0" cx="11.2" cy="10.4" r="1.3"/>
			<path class="st0" d="M21.7,3.8c-0.2-0.3-0.5-0.4-0.8-0.4L4.8,1.5c-0.3,0-0.6,0.1-0.9,0.2C3.7,1.9,3.5,2.2,3.5,2.5L3.2,4.8h14.1
				c1.3,0,2.4,1.1,2.5,2.5v10.4c0-0.1,0.3-0.1,0.4-0.2c0.2-0.2,0.4-0.5,0.4-0.8l1.4-12C22,4.4,21.9,4,21.7,3.8z"/>
			<path class="st0" d="M17.3,6H1.1C0.4,6,0,6.6,0,7.3v8.4l3.9-2.8c1-0.7,2.4-0.7,3.3,0.1l3.3,2.8c0.5,0.4,1.2,0.5,1.7,0.1l6.5-3.8
				v-5C18.6,6.6,18,6,17.3,6z M11.2,12.8c-1.4,0-2.5-1.1-2.5-2.5c0-1.4,1.1-2.5,2.5-2.5c1.4,0,2.5,1.1,2.5,2.5S12.5,12.8,11.2,12.8z
				"/>
		</g>
	</g>
</g>
</svg>
