<?xml version="1.0" encoding="utf-8"?>
<!-- Generator: Adobe Illustrator 22.1.0, SVG Export Plug-In . SVG Version: 6.00 Build 0)  -->
<svg version="1.1" id="Capa_1" xmlns="http://www.w3.org/2000/svg" xmlns:xlink="http://www.w3.org/1999/xlink" x="0px" y="0px"
	 viewBox="0 0 19 19" style="enable-background:new 0 0 19 19;" xml:space="preserve">
<style type="text/css">
	.st0{fill:#B5B5B5;}
</style>
<g>
	<circle class="st0" cx="8" cy="2.1" r="1.5"/>
	<path class="st0" d="M6.8,15.5c-0.2,0.1-0.5,0.2-0.7,0.2v2.4c0,0.5,0.4,0.9,0.9,0.9s0.9-0.4,0.9-0.9v-1.7C7.3,16.4,6.9,16,6.8,15.5
		z"/>
	<path class="st0" d="M8.2,18.2c0,0.5,0.4,0.9,0.9,0.9c0.5,0,0.9-0.4,0.9-0.9v-1.7H8.2V18.2z"/>
	<path class="st0" d="M2.9,3.5C3,3.7,3.1,3.8,3.2,3.9l2.9,1.6v3c0.8,0.3,1.3,1.1,1.3,1.9c0,0.1,0,0.7,0,0.8C7.5,11.1,7.7,11,7.9,11
		v-0.1c0-0.7,0.6-1.3,1.3-1.3h0.7v-4h0.6c0-0.1,0.1-0.2,0.1-0.3c0.2-0.5,0.4-0.9,0.7-1.2H8c0,0,0,0,0,0c0,0-1.3,0-1.3,0L4.1,2.7
		L2.9,0.3C2.7,0,2.3-0.2,1.9,0C1.6,0.2,1.4,0.6,1.6,1L2.9,3.5z"/>
	<path class="st0" d="M19,10.5c0,0-1.2-3.3-1.7-4.8c-0.3-1-0.9-1.5-1.7-1.5c-0.2,0-1.4,0-2.5,0c-0.9,0-1.4,0.7-1.7,1.5
		c-0.5,1.4-1.7,4.8-1.7,4.8c-0.4,0-0.4,0-0.5,0c0,0,0,0,0,0c-0.2,0-0.3,0.2-0.3,0.4c0,0.4,0,0.6,0,0.9H8c-0.2,0-0.4,0.2-0.4,0.4v3
		c0,0.2,0.2,0.4,0.4,0.4h4.6c0.2,0,0.4-0.2,0.4-0.4v-3c0-0.2-0.2-0.4-0.4-0.4h-0.8c0-0.4,0-0.6,0-0.9c0-0.2-0.2-0.4-0.4-0.4l0,0
		h-0.2c0.4-1,0.9-2.5,1.3-3.6c0,0.3,0-0.1-0.5,2.8c0.4,0.2,0.7,0.6,0.7,1.2V11c0.6,0,1.2,0.6,1.2,1.2c0,0.4,0,2.7,0,3
		c0,0.7-0.6,1.2-1.2,1.2h-0.2v1.7c0,0.5,0.4,0.9,0.9,0.9s0.9-0.4,0.9-0.9v-5.4c0.1,0,0.3,0,0.4,0v5.4c0,0.5,0.4,0.9,0.9,0.9
		c0.5,0,0.9-0.4,0.9-0.9v-5.4c0.2,0,0.4,0,0.6,0c0.1,0,0.2-0.1,0.3-0.1c0.1-0.1,0.1-0.2,0.1-0.3c-1.1-5.7-1-5.1-1-5.4
		c0.6,1.6,1.4,4,1.4,4c0.1,0.4,0.6,0.6,0.9,0.4C18.9,11.2,19.1,10.8,19,10.5z M10.3,11.4c0.1,0,0.2,0,0.3-0.1H11l0,0v0.5H9.6v-0.5
		l0,0h0.4C10.1,11.4,10.2,11.4,10.3,11.4z"/>
	<path class="st0" d="M6,14.9c0.3,0,0.5-0.2,0.5-0.5l0-4c0-0.7-0.6-1.3-1.3-1.3c-0.4,0-1.8,0-2.4,0L1.4,8.6L1.1,6.8
		C1,6.5,0.7,6.3,0.4,6.3C0.2,6.4,0,6.7,0,7l0.4,2.1c0,0.2,0.2,0.3,0.3,0.4l1.6,0.6l0,8.3c0,0.4,0.3,0.6,0.6,0.6s0.6-0.3,0.6-0.6
		c0-4.5,0-4,0-4.1h0.3c0,0,0-0.4,0,4.1c0,0.4,0.3,0.6,0.6,0.6s0.6-0.3,0.6-0.6v-2.9l0-5.1c0-0.1,0-0.1,0.1-0.1c0.1,0,0.1,0,0.1,0.1
		l0,0l0,4C5.5,14.7,5.7,14.9,6,14.9C6,14.9,6,14.9,6,14.9z"/>
	<path class="st0" d="M2.4,7.4c0,0.3,0.1,0.6,0.3,0.9C3,8.6,3.4,8.8,3.8,8.8c0.4,0,0.7-0.2,1-0.4c0.2-0.3,0.4-0.6,0.4-1
		C5.2,6.6,4.6,6,3.8,6S2.4,6.6,2.4,7.4z"/>
	<path class="st0" d="M14.3,3.7c0.8,0,1.5-0.7,1.5-1.5c0-0.8-0.7-1.5-1.5-1.5c-0.8,0-1.5,0.7-1.5,1.5C12.8,3,13.5,3.7,14.3,3.7z"/>
</g>
</svg>
