<?xml version="1.0" encoding="utf-8"?>
<!-- Generator: Adobe Illustrator 22.1.0, SVG Export Plug-In . SVG Version: 6.00 Build 0)  -->
<svg version="1.1" id="Capa_1" xmlns="http://www.w3.org/2000/svg" xmlns:xlink="http://www.w3.org/1999/xlink" x="0px" y="0px"
	 viewBox="0 0 19 19" style="enable-background:new 0 0 19 19;" xml:space="preserve">
<style type="text/css">
	.st0{fill:#FFFFFF;}
</style>
<path class="st0" d="M8.6,9.4c0.5,0.3,1.4,0.3,1.9,0c0,0,0,0,0,0l8.5-5.6c-0.3-0.8-1-1.4-1.9-1.4H2C1.2,2.4,0.4,3,0.1,3.8L8.6,9.4
	C8.6,9.4,8.6,9.4,8.6,9.4L8.6,9.4z"/>
<path class="st0" d="M11,10.3C11,10.3,11,10.3,11,10.3c-0.4,0.3-1,0.4-1.5,0.4c-0.6,0-1.1-0.1-1.5-0.4c0,0,0,0,0,0L0,5v9.5
	c0,1.1,0.9,2,2,2H17c1.1,0,2-0.9,2-2V5L11,10.3z"/>
</svg>
