<?xml version="1.0" encoding="utf-8"?>
<!-- Generator: Adobe Illustrator 22.1.0, SVG Export Plug-In . SVG Version: 6.00 Build 0)  -->
<svg version="1.1" id="Capa_1" xmlns="http://www.w3.org/2000/svg" xmlns:xlink="http://www.w3.org/1999/xlink" x="0px" y="0px"
	 viewBox="0 0 26 26" style="enable-background:new 0 0 26 26;" xml:space="preserve">
<style type="text/css">
	.st0{fill:#A9C451;}
</style>
<g>
	<path class="st0" d="M17.4,3C13.4-1,6.9-1,3,3c-4,4-4,10.4,0,14.4c3.5,3.5,9,3.9,13,1.2c0.1,0.4,0.3,0.8,0.6,1.1l5.8,5.8
		c0.8,0.8,2.2,0.8,3,0c0.8-0.8,0.8-2.2,0-3l-5.8-5.8c-0.3-0.3-0.7-0.5-1.1-0.6C21.3,12,20.9,6.5,17.4,3z M15.5,15.5
		c-3,3-7.8,3-10.7,0c-3-3-3-7.8,0-10.7c3-3,7.8-3,10.7,0C18.5,7.8,18.5,12.6,15.5,15.5z"/>
</g>
</svg>
