<?xml version="1.0" encoding="utf-8"?>
<!-- Generator: Adobe Illustrator 22.1.0, SVG Export Plug-In . SVG Version: 6.00 Build 0)  -->
<svg version="1.1" id="Capa_1" xmlns="http://www.w3.org/2000/svg" xmlns:xlink="http://www.w3.org/1999/xlink" x="0px" y="0px"
	 viewBox="0 0 19 19" style="enable-background:new 0 0 19 19;" xml:space="preserve">
<style type="text/css">
	.st0{fill:#B5B5B5;}
</style>
<g>
	<path class="st0" d="M19,12.1l-2.1-3.3V2.7L16,1.8H3L2.1,2.7v6.1L0,12.1H19z M15.2,3.5v4.3c-1.1-0.3-3-0.6-5.7-0.6S4.9,7.5,3.8,7.8
		V3.5H15.2z"/>
	<polygon class="st0" points="0,13.1 0,14.8 2,14.8 2,17.2 3.7,17.2 3.7,14.8 15.3,14.8 15.3,17.2 17,17.2 17,14.8 19,14.8 19,13.1 
			"/>
	<path class="st0" d="M8.8,6.3v-1c0-0.6-0.9-1.1-1.9-1.1S5,4.7,5,5.3v1.5c0,0,1.1-0.3,1.9-0.4C7.6,6.3,8.8,6.3,8.8,6.3z"/>
	<path class="st0" d="M14,6.8V5.3c0-0.6-0.9-1.1-1.9-1.1s-1.9,0.5-1.9,1.1v1c0,0,1.2,0.1,1.9,0.1C12.9,6.5,14,6.8,14,6.8z"/>
</g>
</svg>
