<?xml version="1.0" encoding="utf-8"?>
<!-- Generator: Adobe Illustrator 22.1.0, SVG Export Plug-In . SVG Version: 6.00 Build 0)  -->
<svg version="1.1" id="Layer_1" xmlns="http://www.w3.org/2000/svg" xmlns:xlink="http://www.w3.org/1999/xlink" x="0px" y="0px"
	 viewBox="0 0 22 22" style="enable-background:new 0 0 22 22;" xml:space="preserve">
<style type="text/css">
	.st0{fill:#A9C451;}
</style>
<g id="XMLID_261_">
	<path id="XMLID_266_" class="st0" d="M5.4,14.4c-0.5-0.5-1.1-0.8-1.8-0.9v-2.6l2.2-2.2c0.2,0,0.5-0.1,0.7-0.2
		c2.2-0.9,4.8-3.6,5.4-5.7c-0.3-0.5-0.7-0.9-1.2-1.2C8.9,2.2,6.2,4.8,5.2,7C5.1,7.3,5,7.5,5,7.8l-2.6,2.6v3.1
		c-0.6,0.1-1.3,0.4-1.8,0.9l-0.5,0.5l2.2,2.2V22h1.3v-3.6L5,19.7V22h1.3v-1.9h12.9V22h1.3v-1.9h1.3v-3.9H7.2L5.4,14.4z"/>
	<circle id="XMLID_265_" class="st0" cx="18.6" cy="3.2" r="3.2"/>
	<path id="XMLID_264_" class="st0" d="M16,11h1.3c0-0.7,0.6-1.3,1.3-1.3V8.4c-0.8,0-1.5,0.3-1.9,0.9c-0.5-0.5-1.2-0.9-1.9-0.9v1.3
		C15.4,9.7,16,10.3,16,11z"/>
	<path id="XMLID_263_" class="st0" d="M4.2,6.2c1-2.1,3.2-4.4,5.3-5.5C7-0.2,4.1,0.5,1.9,2.6L1.7,2.8l0.6,3.1L4.2,6.2z"/>
	<path id="XMLID_262_" class="st0" d="M7.4,9.5l0.4,1.9l3.1,0.6l0.2-0.2c2.1-2.1,2.7-5.1,1.8-7.5C11.8,6.3,9.5,8.5,7.4,9.5L7.4,9.5z
		"/>
</g>
</svg>
