<?xml version="1.0" encoding="utf-8"?>
<!-- Generator: Adobe Illustrator 22.1.0, SVG Export Plug-In . SVG Version: 6.00 Build 0)  -->
<svg version="1.1" id="Capa_1" xmlns="http://www.w3.org/2000/svg" xmlns:xlink="http://www.w3.org/1999/xlink" x="0px" y="0px"
	 viewBox="0 0 19 19" style="enable-background:new 0 0 19 19;" xml:space="preserve">
<style type="text/css">
	.st0{fill:#FFFFFF;}
</style>
<g>
	<g>
		<circle class="st0" cx="16.2" cy="11.7" r="0.6"/>
	</g>
</g>
<g>
	<g>
		<path class="st0" d="M14,11.2c-0.3,0-0.6,0.2-0.6,0.6s0.2,0.6,0.6,0.6s0.6-0.2,0.6-0.6S14.3,11.2,14,11.2z"/>
	</g>
</g>
<g>
	<g>
		<circle class="st0" cx="11.7" cy="11.7" r="0.6"/>
	</g>
</g>
<g>
	<g>
		<circle class="st0" cx="7.3" cy="11.7" r="0.6"/>
	</g>
</g>
<g>
	<g>
		<circle class="st0" cx="5" cy="11.7" r="0.6"/>
	</g>
</g>
<g>
	<g>
		<circle class="st0" cx="2.8" cy="11.7" r="0.6"/>
	</g>
</g>
<g>
	<g>
		<path class="st0" d="M12,9l-1.3-0.7L10,7C9.9,6.8,9.7,6.7,9.5,6.7S9.1,6.8,9,7L8.3,8.3L7,9C6.8,9,6.7,9.2,6.7,9.4
			c0,0.2,0.1,0.4,0.3,0.5l1.3,0.7L9,11.9c0.1,0.2,0.3,0.3,0.5,0.3c0.2,0,0.4-0.1,0.5-0.3l0.7-1.3L12,9.9c0.2-0.1,0.3-0.3,0.3-0.5
			C12.3,9.2,12.2,9,12,9z M10,9.7C9.9,9.7,9.8,9.8,9.7,9.9l-0.2,0.5L9.3,9.9C9.2,9.8,9.1,9.7,9,9.7L8.5,9.4L9,9.2
			C9.1,9.1,9.2,9.1,9.3,9l0.2-0.5L9.7,9C9.8,9.1,9.9,9.1,10,9.2l0.5,0.2L10,9.7z"/>
	</g>
</g>
<g>
	<g>
		<path class="st0" d="M17.9,15.8v-1.3c0.6-0.2,1.1-0.8,1.1-1.6c0-0.5-0.2-0.9-0.5-1.2l0.5-2c0-0.1,0-0.1,0-0.2l-0.9-6.3
			C18.6,2.9,19,2.3,19,1.7C19,0.8,18.3,0,17.4,0c-0.9,0-1.7,0.7-1.7,1.6c0,0.5,0.2,0.9,0.5,1.2l-0.9,1.8c-1.1-0.6-2.4-1-3.8-1.2
			l-0.5-0.8c0.2-0.3,0.3-0.6,0.3-1c0-0.9-0.7-1.7-1.6-1.7C8.6,0,7.8,0.7,7.8,1.6c0,0.4,0.1,0.7,0.3,1L7.6,3.5
			C6.2,3.7,4.8,4.1,3.8,4.7L2.9,2.8c0.3-0.3,0.5-0.7,0.5-1.1C3.4,0.8,2.6,0,1.7,0C0.8,0,0,0.7,0,1.6c0,0.7,0.4,1.2,0.9,1.5L0,9.4
			c0,0.1,0,0.1,0,0.2l0.5,2C0.2,11.9,0,12.4,0,12.8c0,0.7,0.5,1.3,1.1,1.6v1.3C0.5,16,0,16.6,0,17.3C0,18.3,0.7,19,1.7,19h15.7
			c0.9,0,1.7-0.7,1.7-1.7C19,16.6,18.5,16,17.9,15.8z M17.3,1.1C17.3,1.1,17.3,1.1,17.3,1.1c0.3,0,0.6,0.3,0.6,0.6
			c0,0.3-0.3,0.6-0.6,0.5c-0.3,0-0.6-0.3-0.5-0.6C16.8,1.4,17,1.1,17.3,1.1z M14.7,5.6l-0.8,1.6l-1.7-2.5C13.1,4.9,14,5.3,14.7,5.6z
			 M9.5,1.1C9.5,1.1,9.5,1.1,9.5,1.1c0.3,0,0.6,0.3,0.6,0.6c0,0.3-0.3,0.6-0.6,0.5C9.2,2.2,8.9,2,8.9,1.7C8.9,1.4,9.2,1.1,9.5,1.1z
			 M6.8,4.7L5.1,7.3L4.3,5.7C5,5.3,5.8,5,6.8,4.7z M1.7,1.1C1.7,1.1,1.7,1.1,1.7,1.1c0.3,0,0.6,0.3,0.6,0.6C2.2,2,2,2.2,1.7,2.2
			C1.4,2.2,1.1,2,1.1,1.7C1.1,1.4,1.4,1.1,1.7,1.1z M1.4,12.3c0.2-0.1,0.3-0.4,0.3-0.6L1.1,9.5L2,3.6l2.5,5.1C4.6,8.8,4.8,8.9,5,8.9
			c0,0,0,0,0,0c0.2,0,0.4-0.1,0.5-0.2c0.1-0.2,3.4-5.1,3.6-5.4c0.1,0,0.3,0,0.4,0.1c0,0,0,0,0,0c0.1,0,0.3,0,0.4-0.1l3.6,5.4
			c0.1,0.2,0.3,0.2,0.5,0.2c0,0,0,0,0,0c0.2,0,0.4-0.1,0.5-0.3l1.4-2.9c0,0,0,0,0,0c0,0,0.1-0.1,0.1-0.1l1-2l0.9,5.9l-0.6,2.3
			c-0.1,0.2,0.1,0.5,0.3,0.6c0.2,0.1,0.3,0.3,0.3,0.5c0,0.3-0.2,0.6-0.6,0.6H1.7c-0.3,0-0.6-0.2-0.6-0.6C1.1,12.6,1.2,12.4,1.4,12.3
			z M16.8,14.5v1.2H2.2v-1.2H16.8z M17.3,17.9H1.7c-0.3,0-0.6-0.2-0.6-0.6s0.2-0.6,0.6-0.6h15.7c0.3,0,0.6,0.2,0.6,0.6
			S17.6,17.9,17.3,17.9z"/>
	</g>
</g>
</svg>
