<?xml version="1.0" encoding="utf-8"?>
<!-- Generator: Adobe Illustrator 22.1.0, SVG Export Plug-In . SVG Version: 6.00 Build 0)  -->
<svg version="1.1" id="sea_xA0_Image_1_" xmlns="http://www.w3.org/2000/svg" xmlns:xlink="http://www.w3.org/1999/xlink" x="0px"
	 y="0px" viewBox="0 0 109 14" style="enable-background:new 0 0 109 14;" xml:space="preserve">
<style type="text/css">
	.st0{fill:#FFFFFF;}
	.st1{fill:#5FD7CD;}
</style>
<g>
	<path class="st0" d="M3.6,9.1c0.8,0.1,6.1,1.3,12.3-5c0,0,3.6,5,13.3,5s12.4-5,12.4-5s3.2,5,12.9,5s12.8-5,12.8-5s3.1,5,13,5
		s12.6-5,12.6-5s1.7,4.4,12.6,5.2"/>
	<path class="st1" d="M5.4,12.7c-0.8,0-1.5-0.1-2.3-0.2c-1.9-0.3-3.3-2-3-4c0.3-1.9,2-3.3,3.9-3l0.2,0c3.7,0.6,7-1.9,9.1-4
		c0.7-0.7,1.7-1.1,2.8-1c1,0.1,2,0.6,2.6,1.5c0.1,0.1,2.9,3.5,10.5,3.5c7.2,0,9.3-3.1,9.4-3.2c0.6-1.1,1.7-1.9,3-1.9
		c1.2,0,2.4,0.6,3,1.7c0.1,0.1,2.5,3.4,9.9,3.4c7.4,0,9.7-3.3,9.8-3.4C64.9,1,66,0.4,67.3,0.3c0,0,0,0,0,0c1.3,0,2.3,0.7,2.9,1.9
		c0,0.1,2.5,3.4,10,3.4c6.9,0,9.2-2.8,9.5-3.2C90.4,1,91.7,0,93.2,0.2c1.5,0.2,2.5,1.1,2.9,2.5c0.4,0.5,2.6,2.6,9.6,3.1
		c1.9,0.1,3.4,1.8,3.2,3.7s-1.8,3.4-3.7,3.2c-6.3-0.5-10.1-2.1-12.4-3.7c-2.4,1.8-6.3,3.5-12.5,3.5c-6.4,0-10.5-1.9-13-3.6
		c-2.4,1.8-6.4,3.6-12.8,3.6c-6.3,0-10.3-1.8-12.8-3.6c-2.3,1.8-6.3,3.6-12.5,3.6c-6.6,0-10.8-2-13.3-3.8C12.5,11.4,9,12.7,5.4,12.7
		z M96,2.5L96,2.5L96,2.5z"/>
</g>
</svg>
