<?xml version="1.0" encoding="utf-8"?>
<!-- Generator: Adobe Illustrator 22.1.0, SVG Export Plug-In . SVG Version: 6.00 Build 0)  -->
<svg version="1.1" id="Layer_1" xmlns="http://www.w3.org/2000/svg" xmlns:xlink="http://www.w3.org/1999/xlink" x="0px" y="0px"
	 viewBox="0 0 1140 9" style="enable-background:new 0 0 1140 9;" xml:space="preserve">
<style type="text/css">
	.st0{fill:#C1EEEA;}
</style>
<g id="sea_copy_xA0_Image_1_">
	<path class="st0" d="M318.5,9c-4,0-6.7-1.5-8.3-2.7C308.6,7.5,305.8,9,302,9c-3.8,0-6.5-1.5-8-2.7c-1.6,1.2-4.5,2.7-8.4,2.7
		s-6.6-1.5-8.1-2.7C275.8,7.5,272.9,9,269,9s-6.7-1.5-8.3-2.7c-1.5,1.2-4.3,2.7-8.2,2.7c-4,0-6.8-1.6-8.4-2.8
		c-1.7,1.1-4.7,2.8-8.2,2.8s-6.4-1.6-8-2.8c-1.7,1.2-4.6,2.8-8.5,2.8c-3.7,0-6.4-1.5-7.9-2.7c-1.6,1.2-4.6,2.7-8.9,2.7
		c-4.3,0-7.2-1.4-8.8-2.6c-1.5,1.2-4.1,2.6-8.3,2.6c-4.1,0-6.8-1.4-8.4-2.6C175.6,7.6,172.9,9,169,9c-4,0-6.7-1.5-8.2-2.7
		c-1.6,1.2-4.5,2.7-8.3,2.7c-3.9,0-6.5-1.5-8.1-2.7c-1.7,1.2-4.8,2.7-8.9,2.7c-4.2,0-7.3-1.6-9-2.8c-1.6,1.2-4.5,2.8-8,2.8
		c-3.6,0-6.5-1.6-8.1-2.7C108.8,7.5,105.9,9,102,9s-6.5-1.5-8-2.7C92.2,7.5,89.3,9,85.5,9c-3.7,0-6.4-1.5-8-2.7C76,7.6,73,9,68.5,9
		s-7.4-1.5-9.1-2.7c-1.5,1.2-4.3,2.7-8,2.7c-3.8,0-6.7-1.6-8.3-2.7C41.6,7.5,38.8,9,34.9,9s-6.5-1.5-8.1-2.7C25.1,7.5,22.1,9,18.4,9
		c-3.6,0-6.4-1.5-7.9-2.7C7.7,8.5,5.9,8.7,2.6,8.9H2.1C1,9,0.1,8.2,0,7.1S0.8,5,1.9,4.9h0.5c3.2-0.2,4.1-0.3,6.8-2.7l1.5-1.3L12,2.4
		c0,0,2.5,2.7,6.4,2.7c4,0,7.2-2.8,7.2-2.8l1.6-1.4l1.3,1.6C28.6,2.6,30.8,5,34.9,5c4.2,0,6.6-2.6,6.7-2.7L43,0.7l1.5,1.5
		c0,0,2.8,2.7,6.9,2.7s6.4-2.6,6.4-2.6l1.6-1.9L61,2.5C61.1,2.6,63.2,5,68.5,5s7.4-2.5,7.5-2.6l1.5-1.8l1.6,1.8
		C79.2,2.5,81.5,5,85.5,5c4.2,0,7.1-2.7,7.1-2.8l1.6-1.6l1.4,1.8c0.1,0.1,2.1,2.5,6.3,2.5c4.4,0,6.8-2.6,6.9-2.7l1.4-1.5l1.5,1.4
		c0,0,3,2.8,6.8,2.8s6.6-2.7,6.6-2.7l1.4-1.4l1.4,1.4c0.1,0.1,2.9,2.8,7.6,2.8c4.7,0,7.6-2.7,7.6-2.7l1.6-1.6l1.4,1.7
		c0.1,0.1,2.2,2.6,6.4,2.6c4.3,0,7-2.7,7-2.7l1.7-1.8l1.4,2c0.1,0.1,1.9,2.5,6.4,2.5s6.5-2.4,6.5-2.5l1.7-2.2l1.6,2.3
		c0.1,0.1,1.8,2.5,6.7,2.5c4.8,0,6.4-2.3,6.5-2.4l1.5-2.2l1.7,2c0.1,0.1,2.4,2.6,7.4,2.6s7.4-2.5,7.5-2.6l1.5-1.7l1.5,1.7
		c0.1,0.1,2.4,2.6,6.4,2.6c4.2,0,7.1-2.7,7.1-2.8l1.4-1.4l1.4,1.4c0,0,2.8,2.7,6.5,2.7c3.8,0,7-2.8,7-2.8l1.5-1.4l1.3,1.5
		c0.1,0.1,2.4,2.6,6.8,2.6c4.3,0,6.5-2.5,6.6-2.6l1.5-1.7l1.5,1.7c0.1,0.1,2.6,2.7,6.9,2.7c4.4,0,7-2.7,7-2.7l1.6-1.7l1.4,1.9
		c0.1,0.1,2.1,2.5,6.4,2.5c4.4,0,6.9-2.6,7-2.7l1.5-1.7l1.5,1.8c0.1,0.1,2.3,2.6,6.5,2.6s6.8-2.7,6.8-2.7l1.6-1.7l1.5,1.8
		c0.1,0.1,2.3,2.6,6.7,2.6c4.4,0,6.4-2.4,6.5-2.5l1.6-1.9l1.5,2l0,0c0,0,0.9,1.1,3.2,2.1c1,0.4,1.5,1.6,1,2.6c-0.4,1-1.6,1.5-2.6,1
		c-1.4-0.6-2.5-1.3-3.2-1.8C325,7.6,322.4,9,318.5,9z"/>
</g>
<g id="sea_copy_xA0_Image_2_">
	<path class="st0" d="M634.5,9.1c-4,0-6.7-1.5-8.3-2.7c-1.6,1.2-4.4,2.7-8.2,2.7s-6.5-1.5-8-2.7c-1.6,1.2-4.5,2.7-8.4,2.7
		c-3.9,0-6.6-1.5-8.1-2.7c-1.7,1.2-4.6,2.7-8.5,2.7c-3.9,0-6.7-1.5-8.3-2.7c-1.5,1.2-4.3,2.7-8.2,2.7c-4,0-6.8-1.6-8.4-2.8
		c-1.7,1.1-4.7,2.8-8.2,2.8s-6.4-1.6-8-2.8c-1.7,1.2-4.6,2.8-8.5,2.8c-3.7,0-6.4-1.5-7.9-2.7c-1.6,1.2-4.6,2.7-8.9,2.7
		s-7.2-1.4-8.8-2.6c-1.5,1.2-4.1,2.6-8.3,2.6c-4.1,0-6.8-1.4-8.4-2.6c-1.5,1.2-4.2,2.6-8.1,2.6c-4,0-6.7-1.5-8.2-2.7
		c-1.6,1.2-4.5,2.7-8.3,2.7c-3.9,0-6.5-1.5-8.1-2.7c-1.7,1.2-4.8,2.7-8.9,2.7c-4.2,0-7.3-1.6-9-2.8c-1.6,1.2-4.5,2.8-8,2.8
		c-3.6,0-6.5-1.6-8.1-2.7c-1.6,1.2-4.5,2.7-8.4,2.7s-6.5-1.5-8-2.7c-1.8,1.2-4.7,2.7-8.5,2.7c-3.7,0-6.4-1.5-8-2.7
		c-1.5,1.3-4.5,2.7-9,2.7s-7.4-1.5-9.1-2.7c-1.5,1.2-4.3,2.7-8,2.7c-3.8,0-6.7-1.6-8.3-2.7c-1.5,1.2-4.3,2.7-8.2,2.7
		s-6.5-1.5-8.1-2.7c-1.7,1.2-4.7,2.7-8.4,2.7c-3.6,0-6.4-1.5-7.9-2.7c-2.8,2.2-4.6,2.4-7.9,2.6h-0.5c-1.1,0.1-2-0.7-2.1-1.8
		s0.8-2.1,1.9-2.2h0.5c3.2-0.2,4.1-0.3,6.8-2.7l1.5-1.3l1.3,1.5c0,0,2.5,2.7,6.4,2.7c4,0,7.2-2.8,7.2-2.8l1.6-1.4l1.3,1.6
		c0.1,0.1,2.3,2.5,6.4,2.5c4.2,0,6.6-2.6,6.7-2.7l1.4-1.6l1.5,1.5c0,0,2.8,2.7,6.9,2.7s6.4-2.6,6.4-2.6l1.6-1.9l1.6,2.1
		c0.1,0.1,2.2,2.5,7.5,2.5c5.3,0,7.4-2.5,7.5-2.6l1.5-1.8l1.6,1.8c0.1,0.1,2.4,2.6,6.4,2.6c4.2,0,7.1-2.7,7.1-2.8l1.6-1.6l1.4,1.8
		c0.1,0.1,2.1,2.5,6.3,2.5c4.4,0,6.8-2.6,6.9-2.7l1.4-1.5l1.5,1.4c0,0,3,2.8,6.8,2.8c3.8,0,6.6-2.7,6.6-2.7l1.4-1.4l1.4,1.4
		c0.1,0.1,2.9,2.8,7.6,2.8s7.6-2.7,7.6-2.7l1.6-1.6l1.4,1.7c0.1,0.1,2.2,2.6,6.4,2.6c4.3,0,7-2.7,7-2.7l1.7-1.8l1.4,2
		c0.1,0.1,1.9,2.5,6.4,2.5s6.5-2.4,6.5-2.5l1.7-2.2l1.6,2.3c0.1,0.1,1.8,2.5,6.7,2.5c4.8,0,6.4-2.3,6.5-2.4l1.5-2.2l1.7,2
		c0.1,0.1,2.4,2.6,7.4,2.6s7.4-2.5,7.5-2.6l1.5-1.7l1.5,1.7c0.1,0.1,2.4,2.6,6.4,2.6c4.2,0,7.1-2.7,7.1-2.8L544,1l1.4,1.4
		c0,0,2.8,2.7,6.5,2.7c3.8,0,7-2.8,7-2.8l1.5-1.4l1.3,1.5c0.1,0.1,2.4,2.6,6.8,2.6c4.3,0,6.5-2.5,6.6-2.6l1.5-1.7l1.5,1.7
		c0.1,0.1,2.6,2.7,6.9,2.7c4.4,0,7-2.7,7-2.7l1.6-1.7l1.4,1.9c0.1,0.1,2.1,2.5,6.4,2.5c4.4,0,6.9-2.6,7-2.7l1.5-1.7l1.5,1.8
		c0.1,0.1,2.3,2.6,6.5,2.6s6.8-2.7,6.8-2.7l1.6-1.7l1.5,1.8c0.1,0.1,2.3,2.6,6.7,2.6s6.4-2.4,6.5-2.5l1.6-1.9l1.5,2l0,0
		c0,0,0.9,1.1,3.2,2.1c1,0.4,1.5,1.6,1,2.6c-0.4,1-1.6,1.5-2.6,1c-1.4-0.6-2.5-1.3-3.2-1.8C641,7.7,638.4,9.1,634.5,9.1z"/>
</g>
<g id="sea_copy_xA0_Image_3_">
	<path class="st0" d="M950.6,9.1c-4,0-6.7-1.5-8.3-2.7c-1.6,1.2-4.4,2.7-8.2,2.7s-6.5-1.5-8-2.7c-1.6,1.2-4.5,2.7-8.4,2.7
		c-3.9,0-6.6-1.5-8.1-2.7c-1.7,1.2-4.6,2.7-8.5,2.7c-3.9,0-6.7-1.5-8.3-2.7c-1.5,1.2-4.3,2.7-8.2,2.7c-4,0-6.8-1.6-8.4-2.8
		c-1.7,1.1-4.7,2.8-8.2,2.8s-6.4-1.6-8-2.8c-1.7,1.2-4.6,2.8-8.5,2.8c-3.7,0-6.4-1.5-7.9-2.7c-1.6,1.2-4.6,2.7-8.9,2.7
		c-4.3,0-7.2-1.4-8.8-2.6c-1.5,1.2-4.1,2.6-8.3,2.6c-4.1,0-6.8-1.4-8.4-2.6c-1.5,1.2-4.2,2.6-8.1,2.6c-4,0-6.7-1.5-8.2-2.7
		c-1.6,1.2-4.5,2.7-8.3,2.7c-3.9,0-6.5-1.5-8.1-2.7c-1.7,1.2-4.8,2.7-8.9,2.7c-4.2,0-7.3-1.6-9-2.8c-1.6,1.2-4.5,2.8-8,2.8
		c-3.6,0-6.5-1.6-8.1-2.7c-1.6,1.2-4.5,2.7-8.4,2.7c-3.9,0-6.5-1.5-8-2.7c-1.8,1.2-4.7,2.7-8.5,2.7c-3.7,0-6.4-1.5-8-2.7
		c-1.5,1.3-4.5,2.7-9,2.7s-7.4-1.5-9.1-2.7c-1.5,1.2-4.3,2.7-8,2.7c-3.8,0-6.7-1.6-8.3-2.7c-1.5,1.2-4.3,2.7-8.2,2.7
		c-3.9,0-6.5-1.5-8.1-2.7c-1.7,1.2-4.7,2.7-8.4,2.7c-3.6,0-6.4-1.5-7.9-2.7c-2.8,2.2-4.6,2.4-7.9,2.6h-0.5c-1.1,0.1-2-0.7-2.1-1.8
		c-0.1-1.1,0.8-2.1,1.9-2.2l0.5,0c3.2-0.2,4.1-0.3,6.8-2.7l1.5-1.3l1.3,1.5c0,0,2.5,2.7,6.4,2.7c4,0,7.2-2.8,7.2-2.8l1.6-1.4
		l1.3,1.6c0.1,0.1,2.3,2.5,6.4,2.5c4.2,0,6.6-2.6,6.7-2.7l1.4-1.6l1.5,1.5c0,0,2.8,2.7,6.9,2.7c4.1,0,6.4-2.6,6.4-2.6l1.6-1.9
		l1.6,2.1c0.1,0.1,2.2,2.5,7.5,2.5c5.3,0,7.4-2.5,7.5-2.6l1.5-1.8l1.6,1.8c0.1,0.1,2.4,2.6,6.4,2.6c4.2,0,7.1-2.7,7.1-2.8l1.6-1.6
		l1.4,1.8c0.1,0.1,2.1,2.5,6.3,2.5c4.4,0,6.8-2.6,6.9-2.7l1.4-1.5l1.5,1.4c0,0,3,2.8,6.8,2.8c3.8,0,6.6-2.7,6.6-2.7l1.4-1.4l1.4,1.4
		c0.1,0.1,2.9,2.8,7.6,2.8s7.6-2.7,7.6-2.7l1.6-1.6l1.4,1.7c0.1,0.1,2.2,2.6,6.4,2.6c4.3,0,7-2.7,7-2.7l1.7-1.8l1.4,2
		c0.1,0.1,1.9,2.5,6.4,2.5s6.5-2.4,6.5-2.5l1.7-2.2l1.6,2.3c0.1,0.1,1.8,2.5,6.7,2.5c4.8,0,6.4-2.3,6.5-2.4l1.5-2.2l1.7,2
		c0.1,0.1,2.4,2.6,7.4,2.6s7.4-2.5,7.5-2.6l1.5-1.7l1.5,1.7c0.1,0.1,2.4,2.6,6.4,2.6c4.2,0,7.1-2.7,7.1-2.8l1.4-1.4l1.4,1.4
		c0,0,2.8,2.7,6.5,2.7c3.8,0,7-2.8,7-2.8l1.5-1.4l1.3,1.5c0.1,0.1,2.4,2.6,6.8,2.6c4.3,0,6.5-2.5,6.6-2.6l1.5-1.7l1.5,1.7
		c0.1,0.1,2.6,2.7,6.9,2.7c4.4,0,7-2.7,7-2.7l1.6-1.7l1.4,1.9c0.1,0.1,2.1,2.5,6.4,2.5c4.4,0,6.9-2.6,7-2.7l1.5-1.7l1.5,1.8
		c0.1,0.1,2.3,2.6,6.5,2.6s6.8-2.7,6.8-2.7l1.6-1.7l1.5,1.8c0.1,0.1,2.3,2.6,6.7,2.6s6.4-2.4,6.5-2.5l1.6-1.9l1.5,2l0,0
		c0,0,0.9,1.1,3.2,2.1c1,0.4,1.5,1.6,1,2.6c-0.4,1-1.6,1.5-2.6,1c-1.4-0.6-2.5-1.3-3.2-1.8C957.1,7.7,954.5,9.1,950.6,9.1z"/>
</g>
<path class="st0" d="M1140,3c-0.5,0.5-2.2,2.2-6.4,2.2c-4.9,0-6.6-2.4-6.7-2.5l-1.6-2.3l-1.7,2.2c0,0.1-2,2.5-6.5,2.5
	s-6.3-2.4-6.4-2.5l-1.4-2l-1.7,1.8c0,0-2.7,2.7-7,2.7c-4.2,0-6.3-2.5-6.4-2.6l-1.4-1.7l-1.6,1.6c0,0-2.9,2.7-7.6,2.7
	c-4.7,0-7.5-2.7-7.6-2.8l-1.4-1.4l-1.4,1.4c0,0-2.8,2.7-6.6,2.7c-3.8,0-6.8-2.8-6.8-2.8l-1.5-1.4l-1.4,1.5c-0.1,0.1-2.5,2.7-6.9,2.7
	c-4.2,0-6.2-2.4-6.3-2.5l-1.4-1.8l-1.6,1.6c0,0.1-2.9,2.8-7.1,2.8c-4,0-6.3-2.5-6.4-2.6l-1.6-1.8l-1.5,1.8c-0.1,0.1-2.2,2.6-7.5,2.6
	c-5.3,0-7.4-2.4-7.5-2.5l-1.6-2.1l-1.6,1.9c0,0-2.3,2.6-6.4,2.6c-4.1,0-6.9-2.7-6.9-2.7l-1.5-1.5l-1.4,1.6c-0.1,0.1-2.5,2.7-6.7,2.7
	c-4.1,0-6.3-2.4-6.4-2.5L975.3,1l-1.6,1.4c0,0-3.2,2.8-7.2,2.8c-3.9,0-6.4-2.7-6.4-2.7L958.8,1l-1.5,1.3c-2.7,2.4-3.6,2.5-6.8,2.7
	l-0.5,0c-1.1,0.1-2,1.1-1.9,2.2c0.1,1.1,1,1.9,2.1,1.8h0.5c3.3-0.2,5.1-0.4,7.9-2.6c1.5,1.2,4.3,2.7,7.9,2.7c3.7,0,6.7-1.5,8.4-2.7
	c1.6,1.2,4.2,2.7,8.1,2.7c3.9,0,6.7-1.5,8.2-2.7c1.6,1.1,4.5,2.7,8.3,2.7c3.7,0,6.5-1.5,8-2.7c1.7,1.2,4.6,2.7,9.1,2.7
	s7.5-1.4,9-2.7c1.6,1.2,4.3,2.7,8,2.7c3.8,0,6.7-1.5,8.5-2.7c1.5,1.2,4.1,2.7,8,2.7c3.9,0,6.8-1.5,8.4-2.7c1.6,1.1,4.5,2.7,8.1,2.7
	c3.5,0,6.4-1.6,8-2.8c1.7,1.2,4.8,2.8,9,2.8c4.1,0,7.2-1.5,8.9-2.7c1.6,1.2,4.2,2.7,8.1,2.7c3.8,0,6.7-1.5,8.3-2.7
	c1.5,1.2,4.2,2.7,8.2,2.7c3.9,0,6.6-1.4,8.1-2.6c1.6,1.2,4.3,2.6,8.4,2.6c2.8,0,4.8-0.6,6.4-1.4V3z"/>
</svg>
