<?xml version="1.0" encoding="utf-8"?>
<!-- Generator: Adobe Illustrator 22.1.0, SVG Export Plug-In . SVG Version: 6.00 Build 0)  -->
<svg version="1.1" xmlns="http://www.w3.org/2000/svg" xmlns:xlink="http://www.w3.org/1999/xlink" x="0px" y="0px"
	 viewBox="0 0 332.6 9" style="enable-background:new 0 0 332.6 9;" xml:space="preserve">
<style type="text/css">
	.st0{filter:url(#Adobe_OpacityMaskFilter);}
	.st1{mask:url(#sea_copy_xA0_Image_2_);}
	.st2{fill:#5FD7CD;}
</style>
<defs>
	<filter id="Adobe_OpacityMaskFilter" filterUnits="userSpaceOnUse" x="0" y="0.3" width="332.6" height="8.7">
		<feColorMatrix  type="matrix" values="1 0 0 0 0  0 1 0 0 0  0 0 1 0 0  0 0 0 1 0"/>
	</filter>
</defs>
<mask maskUnits="userSpaceOnUse" x="0" y="0.3" width="332.6" height="8.7" id="sea_copy_xA0_Image_2_">
	<g id="sea_copyOpacity_Mask_3_" class="st0">
		
			<image style="overflow:visible;" width="347" height="44" id="sea_copyOpacity_Mask_2_" xlink:href="CE020A7.jpg"  transform="matrix(1 0 0 1 -9.9274 0)">
		</image>
	</g>
</mask>
<g id="sea_copy_xA0_Image_1_" class="st1">
	<path class="st2" d="M318.5,9c-4,0-6.7-1.5-8.3-2.7c-1.6,1.2-4.4,2.7-8.2,2.7c-3.8,0-6.5-1.5-8-2.7c-1.6,1.2-4.5,2.7-8.4,2.7
		c-3.9,0-6.6-1.5-8.1-2.7C275.8,7.5,272.9,9,269,9c-3.9,0-6.7-1.5-8.3-2.7c-1.5,1.2-4.3,2.7-8.2,2.7c-4,0-6.8-1.6-8.4-2.8
		c-1.7,1.1-4.7,2.8-8.2,2.8c-3.5,0-6.4-1.6-8-2.8c-1.7,1.2-4.6,2.8-8.5,2.8c-3.7,0-6.4-1.5-7.9-2.7c-1.6,1.2-4.6,2.7-8.9,2.7
		c-4.3,0-7.2-1.4-8.8-2.6c-1.5,1.2-4.1,2.6-8.3,2.6c-4.1,0-6.8-1.4-8.4-2.6C175.6,7.6,172.9,9,169,9c-4,0-6.7-1.5-8.2-2.7
		c-1.6,1.2-4.5,2.7-8.3,2.7c-3.9,0-6.5-1.5-8.1-2.7c-1.7,1.2-4.8,2.7-8.9,2.7c-4.2,0-7.3-1.6-9-2.8c-1.6,1.2-4.5,2.8-8,2.8
		c-3.6,0-6.5-1.6-8.1-2.7c-1.6,1.2-4.5,2.7-8.4,2.7c-3.9,0-6.5-1.5-8-2.7C92.2,7.5,89.3,9,85.5,9c-3.7,0-6.4-1.5-8-2.7
		C76,7.6,73,9,68.5,9c-4.5,0-7.4-1.5-9.1-2.7c-1.5,1.2-4.3,2.7-8,2.7c-3.8,0-6.7-1.6-8.3-2.7C41.6,7.5,38.8,9,34.9,9
		c-3.9,0-6.5-1.5-8.1-2.7C25.1,7.5,22.1,9,18.4,9c-3.6,0-6.4-1.5-7.9-2.7C7.7,8.5,5.9,8.7,2.6,8.9l-0.5,0C1,9,0.1,8.2,0,7.1
		C-0.1,6,0.8,5,1.9,4.9l0.5,0c3.2-0.2,4.1-0.3,6.8-2.7l1.5-1.3L12,2.4c0,0,2.5,2.7,6.4,2.7c4,0,7.2-2.8,7.2-2.8l1.6-1.4l1.3,1.6
		C28.6,2.6,30.8,5,34.9,5c4.2,0,6.6-2.6,6.7-2.7l1.4-1.6l1.5,1.5c0,0,2.8,2.7,6.9,2.7c4.1,0,6.4-2.6,6.4-2.6l1.6-1.9L61,2.5
		C61.1,2.6,63.2,5,68.5,5c5.3,0,7.4-2.5,7.5-2.6l1.5-1.8l1.6,1.8C79.2,2.5,81.5,5,85.5,5c4.2,0,7.1-2.7,7.1-2.8l1.6-1.6l1.4,1.8
		c0.1,0.1,2.1,2.5,6.3,2.5c4.4,0,6.8-2.6,6.9-2.7l1.4-1.5l1.5,1.4c0,0,3,2.8,6.8,2.8c3.8,0,6.6-2.7,6.6-2.7l1.4-1.4l1.4,1.4
		c0.1,0.1,2.9,2.8,7.6,2.8c4.7,0,7.6-2.7,7.6-2.7l1.6-1.6l1.4,1.7c0.1,0.1,2.2,2.6,6.4,2.6c4.3,0,7-2.7,7-2.7l1.7-1.8l1.4,2
		c0.1,0.1,1.9,2.5,6.4,2.5c4.5,0,6.5-2.4,6.5-2.5l1.7-2.2l1.6,2.3c0.1,0.1,1.8,2.5,6.7,2.5c4.8,0,6.4-2.3,6.5-2.4l1.5-2.2l1.7,2
		c0.1,0.1,2.4,2.6,7.4,2.6c5,0,7.4-2.5,7.5-2.6l1.5-1.7l1.5,1.7c0.1,0.1,2.4,2.6,6.4,2.6c4.2,0,7.1-2.7,7.1-2.8l1.4-1.4l1.4,1.4
		c0,0,2.8,2.7,6.5,2.7c3.8,0,7-2.8,7-2.8l1.5-1.4l1.3,1.5c0.1,0.1,2.4,2.6,6.8,2.6c4.3,0,6.5-2.5,6.6-2.6l1.5-1.7l1.5,1.7
		c0.1,0.1,2.6,2.7,6.9,2.7c4.4,0,7-2.7,7-2.7l1.6-1.7l1.4,1.9c0.1,0.1,2.1,2.5,6.4,2.5c4.4,0,6.9-2.6,7-2.7l1.5-1.7l1.5,1.8
		c0.1,0.1,2.3,2.6,6.5,2.6c4.2,0,6.8-2.7,6.8-2.7l1.6-1.7l1.5,1.8c0.1,0.1,2.3,2.6,6.7,2.6c4.4,0,6.4-2.4,6.5-2.5l1.6-1.9l1.5,2
		c0,0,0,0,0,0c0,0,0.9,1.1,3.2,2.1c1,0.4,1.5,1.6,1,2.6c-0.4,1-1.6,1.5-2.6,1c-1.4-0.6-2.5-1.3-3.2-1.8C325,7.6,322.4,9,318.5,9z"/>
</g>
</svg>
